<?xml version="1.0" encoding="utf-8" standalone="no"?>
<!DOCTYPE svg PUBLIC "-//W3C//DTD SVG 1.1//EN"
  "http://www.w3.org/Graphics/SVG/1.1/DTD/svg11.dtd">
<!-- Created with matplotlib (https://matplotlib.org/) -->
<svg height="192.411613pt" version="1.1" viewBox="0 0 1342.951562 192.411613" width="1342.951562pt" xmlns="http://www.w3.org/2000/svg" xmlns:xlink="http://www.w3.org/1999/xlink">
 <defs>
  <style type="text/css">
*{stroke-linecap:butt;stroke-linejoin:round;}
  </style>
 </defs>
 <g id="figure_1">
  <g id="patch_1">
   <path d="M 0 192.411613 
L 1342.951563 192.411613 
L 1342.951563 0 
L 0 0 
z
" style="fill:#ffffff;"/>
  </g>
  <g id="axes_1">
   <g id="patch_2">
    <path d="M 31.8 154.855363 
L 660.926214 154.855363 
L 660.926214 10.855363 
L 31.8 10.855363 
z
" style="fill:#ffffff;"/>
   </g>
   <g id="matplotlib.axis_1">
    <g id="xtick_1">
     <g id="line2d_1">
      <path clip-path="url(#pc0aa622405)" d="M 31.8 154.855363 
L 31.8 10.855363 
" style="fill:none;stroke:#b0b0b0;stroke-linecap:square;stroke-width:0.8;"/>
     </g>
     <g id="line2d_2">
      <defs>
       <path d="M 0 0 
L 0 3.5 
" id="m948f0887c3" style="stroke:#000000;stroke-width:0.8;"/>
      </defs>
      <g>
       <use style="stroke:#000000;stroke-width:0.8;" x="31.8" xlink:href="#m948f0887c3" y="154.855363"/>
      </g>
     </g>
     <g id="text_1">
      <!-- 0.0 -->
      <defs>
       <path d="M 31.78125 66.40625 
Q 24.171875 66.40625 20.328125 58.90625 
Q 16.5 51.421875 16.5 36.375 
Q 16.5 21.390625 20.328125 13.890625 
Q 24.171875 6.390625 31.78125 6.390625 
Q 39.453125 6.390625 43.28125 13.890625 
Q 47.125 21.390625 47.125 36.375 
Q 47.125 51.421875 43.28125 58.90625 
Q 39.453125 66.40625 31.78125 66.40625 
z
M 31.78125 74.21875 
Q 44.046875 74.21875 50.515625 64.515625 
Q 56.984375 54.828125 56.984375 36.375 
Q 56.984375 17.96875 50.515625 8.265625 
Q 44.046875 -1.421875 31.78125 -1.421875 
Q 19.53125 -1.421875 13.0625 8.265625 
Q 6.59375 17.96875 6.59375 36.375 
Q 6.59375 54.828125 13.0625 64.515625 
Q 19.53125 74.21875 31.78125 74.21875 
z
" id="DejaVuSans-48"/>
       <path d="M 10.6875 12.40625 
L 21 12.40625 
L 21 0 
L 10.6875 0 
z
" id="DejaVuSans-46"/>
      </defs>
      <g transform="translate(23.848437 169.4538)scale(0.1 -0.1)">
       <use xlink:href="#DejaVuSans-48"/>
       <use x="63.623047" xlink:href="#DejaVuSans-46"/>
       <use x="95.410156" xlink:href="#DejaVuSans-48"/>
      </g>
     </g>
    </g>
    <g id="xtick_2">
     <g id="line2d_3">
      <path clip-path="url(#pc0aa622405)" d="M 157.625243 154.855363 
L 157.625243 10.855363 
" style="fill:none;stroke:#b0b0b0;stroke-linecap:square;stroke-width:0.8;"/>
     </g>
     <g id="line2d_4">
      <g>
       <use style="stroke:#000000;stroke-width:0.8;" x="157.625243" xlink:href="#m948f0887c3" y="154.855363"/>
      </g>
     </g>
     <g id="text_2">
      <!-- 0.2 -->
      <defs>
       <path d="M 19.1875 8.296875 
L 53.609375 8.296875 
L 53.609375 0 
L 7.328125 0 
L 7.328125 8.296875 
Q 12.9375 14.109375 22.625 23.890625 
Q 32.328125 33.6875 34.8125 36.53125 
Q 39.546875 41.84375 41.421875 45.53125 
Q 43.3125 49.21875 43.3125 52.78125 
Q 43.3125 58.59375 39.234375 62.25 
Q 35.15625 65.921875 28.609375 65.921875 
Q 23.96875 65.921875 18.8125 64.3125 
Q 13.671875 62.703125 7.8125 59.421875 
L 7.8125 69.390625 
Q 13.765625 71.78125 18.9375 73 
Q 24.125 74.21875 28.421875 74.21875 
Q 39.75 74.21875 46.484375 68.546875 
Q 53.21875 62.890625 53.21875 53.421875 
Q 53.21875 48.921875 51.53125 44.890625 
Q 49.859375 40.875 45.40625 35.40625 
Q 44.1875 33.984375 37.640625 27.21875 
Q 31.109375 20.453125 19.1875 8.296875 
z
" id="DejaVuSans-50"/>
      </defs>
      <g transform="translate(149.67368 169.4538)scale(0.1 -0.1)">
       <use xlink:href="#DejaVuSans-48"/>
       <use x="63.623047" xlink:href="#DejaVuSans-46"/>
       <use x="95.410156" xlink:href="#DejaVuSans-50"/>
      </g>
     </g>
    </g>
    <g id="xtick_3">
     <g id="line2d_5">
      <path clip-path="url(#pc0aa622405)" d="M 283.450485 154.855363 
L 283.450485 10.855363 
" style="fill:none;stroke:#b0b0b0;stroke-linecap:square;stroke-width:0.8;"/>
     </g>
     <g id="line2d_6">
      <g>
       <use style="stroke:#000000;stroke-width:0.8;" x="283.450485" xlink:href="#m948f0887c3" y="154.855363"/>
      </g>
     </g>
     <g id="text_3">
      <!-- 0.4 -->
      <defs>
       <path d="M 37.796875 64.3125 
L 12.890625 25.390625 
L 37.796875 25.390625 
z
M 35.203125 72.90625 
L 47.609375 72.90625 
L 47.609375 25.390625 
L 58.015625 25.390625 
L 58.015625 17.1875 
L 47.609375 17.1875 
L 47.609375 0 
L 37.796875 0 
L 37.796875 17.1875 
L 4.890625 17.1875 
L 4.890625 26.703125 
z
" id="DejaVuSans-52"/>
      </defs>
      <g transform="translate(275.498923 169.4538)scale(0.1 -0.1)">
       <use xlink:href="#DejaVuSans-48"/>
       <use x="63.623047" xlink:href="#DejaVuSans-46"/>
       <use x="95.410156" xlink:href="#DejaVuSans-52"/>
      </g>
     </g>
    </g>
    <g id="xtick_4">
     <g id="line2d_7">
      <path clip-path="url(#pc0aa622405)" d="M 409.275728 154.855363 
L 409.275728 10.855363 
" style="fill:none;stroke:#b0b0b0;stroke-linecap:square;stroke-width:0.8;"/>
     </g>
     <g id="line2d_8">
      <g>
       <use style="stroke:#000000;stroke-width:0.8;" x="409.275728" xlink:href="#m948f0887c3" y="154.855363"/>
      </g>
     </g>
     <g id="text_4">
      <!-- 0.6 -->
      <defs>
       <path d="M 33.015625 40.375 
Q 26.375 40.375 22.484375 35.828125 
Q 18.609375 31.296875 18.609375 23.390625 
Q 18.609375 15.53125 22.484375 10.953125 
Q 26.375 6.390625 33.015625 6.390625 
Q 39.65625 6.390625 43.53125 10.953125 
Q 47.40625 15.53125 47.40625 23.390625 
Q 47.40625 31.296875 43.53125 35.828125 
Q 39.65625 40.375 33.015625 40.375 
z
M 52.59375 71.296875 
L 52.59375 62.3125 
Q 48.875 64.0625 45.09375 64.984375 
Q 41.3125 65.921875 37.59375 65.921875 
Q 27.828125 65.921875 22.671875 59.328125 
Q 17.53125 52.734375 16.796875 39.40625 
Q 19.671875 43.65625 24.015625 45.921875 
Q 28.375 48.1875 33.59375 48.1875 
Q 44.578125 48.1875 50.953125 41.515625 
Q 57.328125 34.859375 57.328125 23.390625 
Q 57.328125 12.15625 50.6875 5.359375 
Q 44.046875 -1.421875 33.015625 -1.421875 
Q 20.359375 -1.421875 13.671875 8.265625 
Q 6.984375 17.96875 6.984375 36.375 
Q 6.984375 53.65625 15.1875 63.9375 
Q 23.390625 74.21875 37.203125 74.21875 
Q 40.921875 74.21875 44.703125 73.484375 
Q 48.484375 72.75 52.59375 71.296875 
z
" id="DejaVuSans-54"/>
      </defs>
      <g transform="translate(401.324166 169.4538)scale(0.1 -0.1)">
       <use xlink:href="#DejaVuSans-48"/>
       <use x="63.623047" xlink:href="#DejaVuSans-46"/>
       <use x="95.410156" xlink:href="#DejaVuSans-54"/>
      </g>
     </g>
    </g>
    <g id="xtick_5">
     <g id="line2d_9">
      <path clip-path="url(#pc0aa622405)" d="M 535.100971 154.855363 
L 535.100971 10.855363 
" style="fill:none;stroke:#b0b0b0;stroke-linecap:square;stroke-width:0.8;"/>
     </g>
     <g id="line2d_10">
      <g>
       <use style="stroke:#000000;stroke-width:0.8;" x="535.100971" xlink:href="#m948f0887c3" y="154.855363"/>
      </g>
     </g>
     <g id="text_5">
      <!-- 0.8 -->
      <defs>
       <path d="M 31.78125 34.625 
Q 24.75 34.625 20.71875 30.859375 
Q 16.703125 27.09375 16.703125 20.515625 
Q 16.703125 13.921875 20.71875 10.15625 
Q 24.75 6.390625 31.78125 6.390625 
Q 38.8125 6.390625 42.859375 10.171875 
Q 46.921875 13.96875 46.921875 20.515625 
Q 46.921875 27.09375 42.890625 30.859375 
Q 38.875 34.625 31.78125 34.625 
z
M 21.921875 38.8125 
Q 15.578125 40.375 12.03125 44.71875 
Q 8.5 49.078125 8.5 55.328125 
Q 8.5 64.0625 14.71875 69.140625 
Q 20.953125 74.21875 31.78125 74.21875 
Q 42.671875 74.21875 48.875 69.140625 
Q 55.078125 64.0625 55.078125 55.328125 
Q 55.078125 49.078125 51.53125 44.71875 
Q 48 40.375 41.703125 38.8125 
Q 48.828125 37.15625 52.796875 32.3125 
Q 56.78125 27.484375 56.78125 20.515625 
Q 56.78125 9.90625 50.3125 4.234375 
Q 43.84375 -1.421875 31.78125 -1.421875 
Q 19.734375 -1.421875 13.25 4.234375 
Q 6.78125 9.90625 6.78125 20.515625 
Q 6.78125 27.484375 10.78125 32.3125 
Q 14.796875 37.15625 21.921875 38.8125 
z
M 18.3125 54.390625 
Q 18.3125 48.734375 21.84375 45.5625 
Q 25.390625 42.390625 31.78125 42.390625 
Q 38.140625 42.390625 41.71875 45.5625 
Q 45.3125 48.734375 45.3125 54.390625 
Q 45.3125 60.0625 41.71875 63.234375 
Q 38.140625 66.40625 31.78125 66.40625 
Q 25.390625 66.40625 21.84375 63.234375 
Q 18.3125 60.0625 18.3125 54.390625 
z
" id="DejaVuSans-56"/>
      </defs>
      <g transform="translate(527.149408 169.4538)scale(0.1 -0.1)">
       <use xlink:href="#DejaVuSans-48"/>
       <use x="63.623047" xlink:href="#DejaVuSans-46"/>
       <use x="95.410156" xlink:href="#DejaVuSans-56"/>
      </g>
     </g>
    </g>
    <g id="xtick_6">
     <g id="line2d_11">
      <path clip-path="url(#pc0aa622405)" d="M 660.926214 154.855363 
L 660.926214 10.855363 
" style="fill:none;stroke:#b0b0b0;stroke-linecap:square;stroke-width:0.8;"/>
     </g>
     <g id="line2d_12">
      <g>
       <use style="stroke:#000000;stroke-width:0.8;" x="660.926214" xlink:href="#m948f0887c3" y="154.855363"/>
      </g>
     </g>
     <g id="text_6">
      <!-- 1.0 -->
      <defs>
       <path d="M 12.40625 8.296875 
L 28.515625 8.296875 
L 28.515625 63.921875 
L 10.984375 60.40625 
L 10.984375 69.390625 
L 28.421875 72.90625 
L 38.28125 72.90625 
L 38.28125 8.296875 
L 54.390625 8.296875 
L 54.390625 0 
L 12.40625 0 
z
" id="DejaVuSans-49"/>
      </defs>
      <g transform="translate(652.974651 169.4538)scale(0.1 -0.1)">
       <use xlink:href="#DejaVuSans-49"/>
       <use x="63.623047" xlink:href="#DejaVuSans-46"/>
       <use x="95.410156" xlink:href="#DejaVuSans-48"/>
      </g>
     </g>
    </g>
    <g id="text_7">
     <!-- C-score Histogram (log scale) -->
     <defs>
      <path d="M 64.40625 67.28125 
L 64.40625 56.890625 
Q 59.421875 61.53125 53.78125 63.8125 
Q 48.140625 66.109375 41.796875 66.109375 
Q 29.296875 66.109375 22.65625 58.46875 
Q 16.015625 50.828125 16.015625 36.375 
Q 16.015625 21.96875 22.65625 14.328125 
Q 29.296875 6.6875 41.796875 6.6875 
Q 48.140625 6.6875 53.78125 8.984375 
Q 59.421875 11.28125 64.40625 15.921875 
L 64.40625 5.609375 
Q 59.234375 2.09375 53.4375 0.328125 
Q 47.65625 -1.421875 41.21875 -1.421875 
Q 24.65625 -1.421875 15.125 8.703125 
Q 5.609375 18.84375 5.609375 36.375 
Q 5.609375 53.953125 15.125 64.078125 
Q 24.65625 74.21875 41.21875 74.21875 
Q 47.75 74.21875 53.53125 72.484375 
Q 59.328125 70.75 64.40625 67.28125 
z
" id="DejaVuSans-67"/>
      <path d="M 4.890625 31.390625 
L 31.203125 31.390625 
L 31.203125 23.390625 
L 4.890625 23.390625 
z
" id="DejaVuSans-45"/>
      <path d="M 44.28125 53.078125 
L 44.28125 44.578125 
Q 40.484375 46.53125 36.375 47.5 
Q 32.28125 48.484375 27.875 48.484375 
Q 21.1875 48.484375 17.84375 46.4375 
Q 14.5 44.390625 14.5 40.28125 
Q 14.5 37.15625 16.890625 35.375 
Q 19.28125 33.59375 26.515625 31.984375 
L 29.59375 31.296875 
Q 39.15625 29.25 43.1875 25.515625 
Q 47.21875 21.78125 47.21875 15.09375 
Q 47.21875 7.46875 41.1875 3.015625 
Q 35.15625 -1.421875 24.609375 -1.421875 
Q 20.21875 -1.421875 15.453125 -0.5625 
Q 10.6875 0.296875 5.421875 2 
L 5.421875 11.28125 
Q 10.40625 8.6875 15.234375 7.390625 
Q 20.0625 6.109375 24.8125 6.109375 
Q 31.15625 6.109375 34.5625 8.28125 
Q 37.984375 10.453125 37.984375 14.40625 
Q 37.984375 18.0625 35.515625 20.015625 
Q 33.0625 21.96875 24.703125 23.78125 
L 21.578125 24.515625 
Q 13.234375 26.265625 9.515625 29.90625 
Q 5.8125 33.546875 5.8125 39.890625 
Q 5.8125 47.609375 11.28125 51.796875 
Q 16.75 56 26.8125 56 
Q 31.78125 56 36.171875 55.265625 
Q 40.578125 54.546875 44.28125 53.078125 
z
" id="DejaVuSans-115"/>
      <path d="M 48.78125 52.59375 
L 48.78125 44.1875 
Q 44.96875 46.296875 41.140625 47.34375 
Q 37.3125 48.390625 33.40625 48.390625 
Q 24.65625 48.390625 19.8125 42.84375 
Q 14.984375 37.3125 14.984375 27.296875 
Q 14.984375 17.28125 19.8125 11.734375 
Q 24.65625 6.203125 33.40625 6.203125 
Q 37.3125 6.203125 41.140625 7.25 
Q 44.96875 8.296875 48.78125 10.40625 
L 48.78125 2.09375 
Q 45.015625 0.34375 40.984375 -0.53125 
Q 36.96875 -1.421875 32.421875 -1.421875 
Q 20.0625 -1.421875 12.78125 6.34375 
Q 5.515625 14.109375 5.515625 27.296875 
Q 5.515625 40.671875 12.859375 48.328125 
Q 20.21875 56 33.015625 56 
Q 37.15625 56 41.109375 55.140625 
Q 45.0625 54.296875 48.78125 52.59375 
z
" id="DejaVuSans-99"/>
      <path d="M 30.609375 48.390625 
Q 23.390625 48.390625 19.1875 42.75 
Q 14.984375 37.109375 14.984375 27.296875 
Q 14.984375 17.484375 19.15625 11.84375 
Q 23.34375 6.203125 30.609375 6.203125 
Q 37.796875 6.203125 41.984375 11.859375 
Q 46.1875 17.53125 46.1875 27.296875 
Q 46.1875 37.015625 41.984375 42.703125 
Q 37.796875 48.390625 30.609375 48.390625 
z
M 30.609375 56 
Q 42.328125 56 49.015625 48.375 
Q 55.71875 40.765625 55.71875 27.296875 
Q 55.71875 13.875 49.015625 6.21875 
Q 42.328125 -1.421875 30.609375 -1.421875 
Q 18.84375 -1.421875 12.171875 6.21875 
Q 5.515625 13.875 5.515625 27.296875 
Q 5.515625 40.765625 12.171875 48.375 
Q 18.84375 56 30.609375 56 
z
" id="DejaVuSans-111"/>
      <path d="M 41.109375 46.296875 
Q 39.59375 47.171875 37.8125 47.578125 
Q 36.03125 48 33.890625 48 
Q 26.265625 48 22.1875 43.046875 
Q 18.109375 38.09375 18.109375 28.8125 
L 18.109375 0 
L 9.078125 0 
L 9.078125 54.6875 
L 18.109375 54.6875 
L 18.109375 46.1875 
Q 20.953125 51.171875 25.484375 53.578125 
Q 30.03125 56 36.53125 56 
Q 37.453125 56 38.578125 55.875 
Q 39.703125 55.765625 41.0625 55.515625 
z
" id="DejaVuSans-114"/>
      <path d="M 56.203125 29.59375 
L 56.203125 25.203125 
L 14.890625 25.203125 
Q 15.484375 15.921875 20.484375 11.0625 
Q 25.484375 6.203125 34.421875 6.203125 
Q 39.59375 6.203125 44.453125 7.46875 
Q 49.3125 8.734375 54.109375 11.28125 
L 54.109375 2.78125 
Q 49.265625 0.734375 44.1875 -0.34375 
Q 39.109375 -1.421875 33.890625 -1.421875 
Q 20.796875 -1.421875 13.15625 6.1875 
Q 5.515625 13.8125 5.515625 26.8125 
Q 5.515625 40.234375 12.765625 48.109375 
Q 20.015625 56 32.328125 56 
Q 43.359375 56 49.78125 48.890625 
Q 56.203125 41.796875 56.203125 29.59375 
z
M 47.21875 32.234375 
Q 47.125 39.59375 43.09375 43.984375 
Q 39.0625 48.390625 32.421875 48.390625 
Q 24.90625 48.390625 20.390625 44.140625 
Q 15.875 39.890625 15.1875 32.171875 
z
" id="DejaVuSans-101"/>
      <path id="DejaVuSans-32"/>
      <path d="M 9.8125 72.90625 
L 19.671875 72.90625 
L 19.671875 43.015625 
L 55.515625 43.015625 
L 55.515625 72.90625 
L 65.375 72.90625 
L 65.375 0 
L 55.515625 0 
L 55.515625 34.71875 
L 19.671875 34.71875 
L 19.671875 0 
L 9.8125 0 
z
" id="DejaVuSans-72"/>
      <path d="M 9.421875 54.6875 
L 18.40625 54.6875 
L 18.40625 0 
L 9.421875 0 
z
M 9.421875 75.984375 
L 18.40625 75.984375 
L 18.40625 64.59375 
L 9.421875 64.59375 
z
" id="DejaVuSans-105"/>
      <path d="M 18.3125 70.21875 
L 18.3125 54.6875 
L 36.8125 54.6875 
L 36.8125 47.703125 
L 18.3125 47.703125 
L 18.3125 18.015625 
Q 18.3125 11.328125 20.140625 9.421875 
Q 21.96875 7.515625 27.59375 7.515625 
L 36.8125 7.515625 
L 36.8125 0 
L 27.59375 0 
Q 17.1875 0 13.234375 3.875 
Q 9.28125 7.765625 9.28125 18.015625 
L 9.28125 47.703125 
L 2.6875 47.703125 
L 2.6875 54.6875 
L 9.28125 54.6875 
L 9.28125 70.21875 
z
" id="DejaVuSans-116"/>
      <path d="M 45.40625 27.984375 
Q 45.40625 37.75 41.375 43.109375 
Q 37.359375 48.484375 30.078125 48.484375 
Q 22.859375 48.484375 18.828125 43.109375 
Q 14.796875 37.75 14.796875 27.984375 
Q 14.796875 18.265625 18.828125 12.890625 
Q 22.859375 7.515625 30.078125 7.515625 
Q 37.359375 7.515625 41.375 12.890625 
Q 45.40625 18.265625 45.40625 27.984375 
z
M 54.390625 6.78125 
Q 54.390625 -7.171875 48.1875 -13.984375 
Q 42 -20.796875 29.203125 -20.796875 
Q 24.46875 -20.796875 20.265625 -20.09375 
Q 16.0625 -19.390625 12.109375 -17.921875 
L 12.109375 -9.1875 
Q 16.0625 -11.328125 19.921875 -12.34375 
Q 23.78125 -13.375 27.78125 -13.375 
Q 36.625 -13.375 41.015625 -8.765625 
Q 45.40625 -4.15625 45.40625 5.171875 
L 45.40625 9.625 
Q 42.625 4.78125 38.28125 2.390625 
Q 33.9375 0 27.875 0 
Q 17.828125 0 11.671875 7.65625 
Q 5.515625 15.328125 5.515625 27.984375 
Q 5.515625 40.671875 11.671875 48.328125 
Q 17.828125 56 27.875 56 
Q 33.9375 56 38.28125 53.609375 
Q 42.625 51.21875 45.40625 46.390625 
L 45.40625 54.6875 
L 54.390625 54.6875 
z
" id="DejaVuSans-103"/>
      <path d="M 34.28125 27.484375 
Q 23.390625 27.484375 19.1875 25 
Q 14.984375 22.515625 14.984375 16.5 
Q 14.984375 11.71875 18.140625 8.90625 
Q 21.296875 6.109375 26.703125 6.109375 
Q 34.1875 6.109375 38.703125 11.40625 
Q 43.21875 16.703125 43.21875 25.484375 
L 43.21875 27.484375 
z
M 52.203125 31.203125 
L 52.203125 0 
L 43.21875 0 
L 43.21875 8.296875 
Q 40.140625 3.328125 35.546875 0.953125 
Q 30.953125 -1.421875 24.3125 -1.421875 
Q 15.921875 -1.421875 10.953125 3.296875 
Q 6 8.015625 6 15.921875 
Q 6 25.140625 12.171875 29.828125 
Q 18.359375 34.515625 30.609375 34.515625 
L 43.21875 34.515625 
L 43.21875 35.40625 
Q 43.21875 41.609375 39.140625 45 
Q 35.0625 48.390625 27.6875 48.390625 
Q 23 48.390625 18.546875 47.265625 
Q 14.109375 46.140625 10.015625 43.890625 
L 10.015625 52.203125 
Q 14.9375 54.109375 19.578125 55.046875 
Q 24.21875 56 28.609375 56 
Q 40.484375 56 46.34375 49.84375 
Q 52.203125 43.703125 52.203125 31.203125 
z
" id="DejaVuSans-97"/>
      <path d="M 52 44.1875 
Q 55.375 50.25 60.0625 53.125 
Q 64.75 56 71.09375 56 
Q 79.640625 56 84.28125 50.015625 
Q 88.921875 44.046875 88.921875 33.015625 
L 88.921875 0 
L 79.890625 0 
L 79.890625 32.71875 
Q 79.890625 40.578125 77.09375 44.375 
Q 74.3125 48.1875 68.609375 48.1875 
Q 61.625 48.1875 57.5625 43.546875 
Q 53.515625 38.921875 53.515625 30.90625 
L 53.515625 0 
L 44.484375 0 
L 44.484375 32.71875 
Q 44.484375 40.625 41.703125 44.40625 
Q 38.921875 48.1875 33.109375 48.1875 
Q 26.21875 48.1875 22.15625 43.53125 
Q 18.109375 38.875 18.109375 30.90625 
L 18.109375 0 
L 9.078125 0 
L 9.078125 54.6875 
L 18.109375 54.6875 
L 18.109375 46.1875 
Q 21.1875 51.21875 25.484375 53.609375 
Q 29.78125 56 35.6875 56 
Q 41.65625 56 45.828125 52.96875 
Q 50 49.953125 52 44.1875 
z
" id="DejaVuSans-109"/>
      <path d="M 31 75.875 
Q 24.46875 64.65625 21.28125 53.65625 
Q 18.109375 42.671875 18.109375 31.390625 
Q 18.109375 20.125 21.3125 9.0625 
Q 24.515625 -2 31 -13.1875 
L 23.1875 -13.1875 
Q 15.875 -1.703125 12.234375 9.375 
Q 8.59375 20.453125 8.59375 31.390625 
Q 8.59375 42.28125 12.203125 53.3125 
Q 15.828125 64.359375 23.1875 75.875 
z
" id="DejaVuSans-40"/>
      <path d="M 9.421875 75.984375 
L 18.40625 75.984375 
L 18.40625 0 
L 9.421875 0 
z
" id="DejaVuSans-108"/>
      <path d="M 8.015625 75.875 
L 15.828125 75.875 
Q 23.140625 64.359375 26.78125 53.3125 
Q 30.421875 42.28125 30.421875 31.390625 
Q 30.421875 20.453125 26.78125 9.375 
Q 23.140625 -1.703125 15.828125 -13.1875 
L 8.015625 -13.1875 
Q 14.5 -2 17.703125 9.0625 
Q 20.90625 20.125 20.90625 31.390625 
Q 20.90625 42.671875 17.703125 53.65625 
Q 14.5 64.65625 8.015625 75.875 
z
" id="DejaVuSans-41"/>
     </defs>
     <g transform="translate(272.411544 183.131925)scale(0.1 -0.1)">
      <use xlink:href="#DejaVuSans-67"/>
      <use x="69.824219" xlink:href="#DejaVuSans-45"/>
      <use x="105.908203" xlink:href="#DejaVuSans-115"/>
      <use x="158.007812" xlink:href="#DejaVuSans-99"/>
      <use x="212.988281" xlink:href="#DejaVuSans-111"/>
      <use x="274.169922" xlink:href="#DejaVuSans-114"/>
      <use x="315.251953" xlink:href="#DejaVuSans-101"/>
      <use x="376.775391" xlink:href="#DejaVuSans-32"/>
      <use x="408.5625" xlink:href="#DejaVuSans-72"/>
      <use x="483.757812" xlink:href="#DejaVuSans-105"/>
      <use x="511.541016" xlink:href="#DejaVuSans-115"/>
      <use x="563.640625" xlink:href="#DejaVuSans-116"/>
      <use x="602.849609" xlink:href="#DejaVuSans-111"/>
      <use x="664.03125" xlink:href="#DejaVuSans-103"/>
      <use x="727.507812" xlink:href="#DejaVuSans-114"/>
      <use x="768.621094" xlink:href="#DejaVuSans-97"/>
      <use x="829.900391" xlink:href="#DejaVuSans-109"/>
      <use x="927.3125" xlink:href="#DejaVuSans-32"/>
      <use x="959.099609" xlink:href="#DejaVuSans-40"/>
      <use x="998.113281" xlink:href="#DejaVuSans-108"/>
      <use x="1025.896484" xlink:href="#DejaVuSans-111"/>
      <use x="1087.078125" xlink:href="#DejaVuSans-103"/>
      <use x="1150.554688" xlink:href="#DejaVuSans-32"/>
      <use x="1182.341797" xlink:href="#DejaVuSans-115"/>
      <use x="1234.441406" xlink:href="#DejaVuSans-99"/>
      <use x="1289.421875" xlink:href="#DejaVuSans-97"/>
      <use x="1350.701172" xlink:href="#DejaVuSans-108"/>
      <use x="1378.484375" xlink:href="#DejaVuSans-101"/>
      <use x="1440.007812" xlink:href="#DejaVuSans-41"/>
     </g>
    </g>
   </g>
   <g id="matplotlib.axis_2">
    <g id="ytick_1">
     <g id="line2d_13">
      <path clip-path="url(#pc0aa622405)" d="M 31.8 143.322727 
L 660.926214 143.322727 
" style="fill:none;stroke:#b0b0b0;stroke-linecap:square;stroke-width:0.8;"/>
     </g>
     <g id="line2d_14">
      <defs>
       <path d="M 0 0 
L -3.5 0 
" id="m845a686ef5" style="stroke:#000000;stroke-width:0.8;"/>
      </defs>
      <g>
       <use style="stroke:#000000;stroke-width:0.8;" x="31.8" xlink:href="#m845a686ef5" y="143.322727"/>
      </g>
     </g>
     <g id="text_8">
      <!-- $\mathdefault{10^{1}}$ -->
      <g transform="translate(7.2 147.121945)scale(0.1 -0.1)">
       <use transform="translate(0 0.684375)" xlink:href="#DejaVuSans-49"/>
       <use transform="translate(63.623047 0.684375)" xlink:href="#DejaVuSans-48"/>
       <use transform="translate(128.203125 38.965625)scale(0.7)" xlink:href="#DejaVuSans-49"/>
      </g>
     </g>
    </g>
    <g id="ytick_2">
     <g id="line2d_15">
      <path clip-path="url(#pc0aa622405)" d="M 31.8 34.331139 
L 660.926214 34.331139 
" style="fill:none;stroke:#b0b0b0;stroke-linecap:square;stroke-width:0.8;"/>
     </g>
     <g id="line2d_16">
      <g>
       <use style="stroke:#000000;stroke-width:0.8;" x="31.8" xlink:href="#m845a686ef5" y="34.331139"/>
      </g>
     </g>
     <g id="text_9">
      <!-- $\mathdefault{10^{2}}$ -->
      <g transform="translate(7.2 38.130357)scale(0.1 -0.1)">
       <use transform="translate(0 0.765625)" xlink:href="#DejaVuSans-49"/>
       <use transform="translate(63.623047 0.765625)" xlink:href="#DejaVuSans-48"/>
       <use transform="translate(128.203125 39.046875)scale(0.7)" xlink:href="#DejaVuSans-50"/>
      </g>
     </g>
    </g>
    <g id="ytick_3">
     <g id="line2d_17">
      <defs>
       <path d="M 0 0 
L -2 0 
" id="m382afa2ea1" style="stroke:#000000;stroke-width:0.6;"/>
      </defs>
      <g>
       <use style="stroke:#000000;stroke-width:0.6;" x="31.8" xlink:href="#m382afa2ea1" y="153.885103"/>
      </g>
     </g>
    </g>
    <g id="ytick_4">
     <g id="line2d_18">
      <g>
       <use style="stroke:#000000;stroke-width:0.6;" x="31.8" xlink:href="#m382afa2ea1" y="148.309908"/>
      </g>
     </g>
    </g>
    <g id="ytick_5">
     <g id="line2d_19">
      <g>
       <use style="stroke:#000000;stroke-width:0.6;" x="31.8" xlink:href="#m382afa2ea1" y="110.512989"/>
      </g>
     </g>
    </g>
    <g id="ytick_6">
     <g id="line2d_20">
      <g>
       <use style="stroke:#000000;stroke-width:0.6;" x="31.8" xlink:href="#m382afa2ea1" y="91.320523"/>
      </g>
     </g>
    </g>
    <g id="ytick_7">
     <g id="line2d_21">
      <g>
       <use style="stroke:#000000;stroke-width:0.6;" x="31.8" xlink:href="#m382afa2ea1" y="77.703252"/>
      </g>
     </g>
    </g>
    <g id="ytick_8">
     <g id="line2d_22">
      <g>
       <use style="stroke:#000000;stroke-width:0.6;" x="31.8" xlink:href="#m382afa2ea1" y="67.140876"/>
      </g>
     </g>
    </g>
    <g id="ytick_9">
     <g id="line2d_23">
      <g>
       <use style="stroke:#000000;stroke-width:0.6;" x="31.8" xlink:href="#m382afa2ea1" y="58.510786"/>
      </g>
     </g>
    </g>
    <g id="ytick_10">
     <g id="line2d_24">
      <g>
       <use style="stroke:#000000;stroke-width:0.6;" x="31.8" xlink:href="#m382afa2ea1" y="51.214149"/>
      </g>
     </g>
    </g>
    <g id="ytick_11">
     <g id="line2d_25">
      <g>
       <use style="stroke:#000000;stroke-width:0.6;" x="31.8" xlink:href="#m382afa2ea1" y="44.893515"/>
      </g>
     </g>
    </g>
    <g id="ytick_12">
     <g id="line2d_26">
      <g>
       <use style="stroke:#000000;stroke-width:0.6;" x="31.8" xlink:href="#m382afa2ea1" y="39.31832"/>
      </g>
     </g>
    </g>
   </g>
   <g id="patch_3">
    <path clip-path="url(#pc0aa622405)" d="M 32.979612 109243.902275 
L 46.348544 109243.902275 
L 46.348544 45.488924 
L 32.979612 45.488924 
z
" style="fill:#67001f;"/>
   </g>
   <g id="patch_4">
    <path clip-path="url(#pc0aa622405)" d="M 48.707767 109243.902275 
L 62.076699 109243.902275 
L 62.076699 101.8829 
L 48.707767 101.8829 
z
" style="fill:#790622;"/>
   </g>
   <g id="patch_5">
    <path clip-path="url(#pc0aa622405)" d="M 64.435922 109243.902275 
L 77.804854 109243.902275 
L 77.804854 127.396 
L 64.435922 127.396 
z
" style="fill:#8d0c25;"/>
   </g>
   <g id="patch_6">
    <path clip-path="url(#pc0aa622405)" d="M 80.164078 109243.902275 
L 93.53301 109243.902275 
L 93.53301 121.075365 
L 80.164078 121.075365 
z
" style="fill:#9f1228;"/>
   </g>
   <g id="patch_7">
    <path clip-path="url(#pc0aa622405)" d="M 95.892233 109243.902275 
L 109.261165 109243.902275 
L 109.261165 112.940929 
L 95.892233 112.940929 
z
" style="fill:#b3192c;"/>
   </g>
   <g id="patch_8">
    <path clip-path="url(#pc0aa622405)" d="M 111.620388 109243.902275 
L 124.98932 109243.902275 
L 124.98932 138.811272 
L 111.620388 138.811272 
z
" style="fill:#bb2a34;"/>
   </g>
   <g id="patch_9">
    <path clip-path="url(#pc0aa622405)" d="M 127.348544 109243.902275 
L 140.717476 109243.902275 
L 140.717476 130.90386 
L 127.348544 130.90386 
z
" style="fill:#c53e3d;"/>
   </g>
   <g id="patch_10">
    <path clip-path="url(#pc0aa622405)" d="M 143.076699 109243.902275 
L 156.445631 109243.902275 
L 156.445631 121.075365 
L 143.076699 121.075365 
z
" style="fill:#ce4f45;"/>
   </g>
   <g id="patch_11">
    <path clip-path="url(#pc0aa622405)" d="M 158.804854 109243.902275 
L 172.173786 109243.902275 
L 172.173786 106.001535 
L 158.804854 106.001535 
z
" style="fill:#d7634f;"/>
   </g>
   <g id="patch_12">
    <path clip-path="url(#pc0aa622405)" d="M 174.53301 109243.902275 
L 187.901942 109243.902275 
L 187.901942 98.094122 
L 174.53301 98.094122 
z
" style="fill:#df765e;"/>
   </g>
   <g id="patch_13">
    <path clip-path="url(#pc0aa622405)" d="M 190.261165 109243.902275 
L 203.630097 109243.902275 
L 203.630097 110.512989 
L 190.261165 110.512989 
z
" style="fill:#e6866a;"/>
   </g>
   <g id="patch_14">
    <path clip-path="url(#pc0aa622405)" d="M 205.98932 109243.902275 
L 219.358252 109243.902275 
L 219.358252 134.692637 
L 205.98932 134.692637 
z
" style="fill:#ef9979;"/>
   </g>
   <g id="patch_15">
    <path clip-path="url(#pc0aa622405)" d="M 221.717476 109243.902275 
L 235.086408 109243.902275 
L 235.086408 148.309908 
L 221.717476 148.309908 
z
" style="fill:#f5a886;"/>
   </g>
   <g id="patch_16">
    <path clip-path="url(#pc0aa622405)" d="M 237.445631 109243.902275 
L 250.814563 109243.902275 
L 250.814563 110.512989 
L 237.445631 110.512989 
z
" style="fill:#f7b799;"/>
   </g>
   <g id="patch_17">
    <path clip-path="url(#pc0aa622405)" d="M 253.173786 109243.902275 
L 266.542718 109243.902275 
L 266.542718 106.001535 
L 253.173786 106.001535 
z
" style="fill:#f9c4a9;"/>
   </g>
   <g id="patch_18">
    <path clip-path="url(#pc0aa622405)" d="M 268.901942 109243.902275 
L 282.270874 109243.902275 
L 282.270874 101.8829 
L 268.901942 101.8829 
z
" style="fill:#fcd3bc;"/>
   </g>
   <g id="patch_19">
    <path clip-path="url(#pc0aa622405)" d="M 284.630097 109243.902275 
L 297.999029 109243.902275 
L 297.999029 118.205733 
L 284.630097 118.205733 
z
" style="fill:#fcdecd;"/>
   </g>
   <g id="patch_20">
    <path clip-path="url(#pc0aa622405)" d="M 300.358252 109243.902275 
L 313.727184 109243.902275 
L 313.727184 101.8829 
L 300.358252 101.8829 
z
" style="fill:#fbe5d8;"/>
   </g>
   <g id="patch_21">
    <path clip-path="url(#pc0aa622405)" d="M 316.086408 109243.902275 
L 329.45534 109243.902275 
L 329.45534 94.586263 
L 316.086408 94.586263 
z
" style="fill:#f9ede5;"/>
   </g>
   <g id="patch_22">
    <path clip-path="url(#pc0aa622405)" d="M 331.814563 109243.902275 
L 345.183495 109243.902275 
L 345.183495 134.692637 
L 331.814563 134.692637 
z
" style="fill:#f8f3f0;"/>
   </g>
   <g id="patch_23">
    <path clip-path="url(#pc0aa622405)" d="M 347.542718 109243.902275 
L 360.91165 109243.902275 
L 360.91165 98.094122 
L 347.542718 98.094122 
z
" style="fill:#f2f5f6;"/>
   </g>
   <g id="patch_24">
    <path clip-path="url(#pc0aa622405)" d="M 363.270874 109243.902275 
L 376.639806 109243.902275 
L 376.639806 115.500171 
L 363.270874 115.500171 
z
" style="fill:#e9f0f4;"/>
   </g>
   <g id="patch_25">
    <path clip-path="url(#pc0aa622405)" d="M 378.999029 109243.902275 
L 392.367961 109243.902275 
L 392.367961 112.940929 
L 378.999029 112.940929 
z
" style="fill:#deebf2;"/>
   </g>
   <g id="patch_26">
    <path clip-path="url(#pc0aa622405)" d="M 394.727184 109243.902275 
L 408.096117 109243.902275 
L 408.096117 99.950613 
L 394.727184 99.950613 
z
" style="fill:#d5e7f1;"/>
   </g>
   <g id="patch_27">
    <path clip-path="url(#pc0aa622405)" d="M 410.45534 109243.902275 
L 423.824272 109243.902275 
L 423.824272 96.307705 
L 410.45534 96.307705 
z
" style="fill:#c7e0ed;"/>
   </g>
   <g id="patch_28">
    <path clip-path="url(#pc0aa622405)" d="M 426.183495 109243.902275 
L 439.552427 109243.902275 
L 439.552427 94.586263 
L 426.183495 94.586263 
z
" style="fill:#b6d7e8;"/>
   </g>
   <g id="patch_29">
    <path clip-path="url(#pc0aa622405)" d="M 441.91165 109243.902275 
L 455.280583 109243.902275 
L 455.280583 118.205733 
L 441.91165 118.205733 
z
" style="fill:#a7d0e4;"/>
   </g>
   <g id="patch_30">
    <path clip-path="url(#pc0aa622405)" d="M 457.639806 109243.902275 
L 471.008738 109243.902275 
L 471.008738 85.395995 
L 457.639806 85.395995 
z
" style="fill:#96c7df;"/>
   </g>
   <g id="patch_31">
    <path clip-path="url(#pc0aa622405)" d="M 473.367961 109243.902275 
L 486.736893 109243.902275 
L 486.736893 94.586263 
L 473.367961 94.586263 
z
" style="fill:#84bcd9;"/>
   </g>
   <g id="patch_32">
    <path clip-path="url(#pc0aa622405)" d="M 489.096117 109243.902275 
L 502.465049 109243.902275 
L 502.465049 91.320523 
L 489.096117 91.320523 
z
" style="fill:#6eaed2;"/>
   </g>
   <g id="patch_33">
    <path clip-path="url(#pc0aa622405)" d="M 504.824272 109243.902275 
L 518.193204 109243.902275 
L 518.193204 94.586263 
L 504.824272 94.586263 
z
" style="fill:#5ca3cb;"/>
   </g>
   <g id="patch_34">
    <path clip-path="url(#pc0aa622405)" d="M 520.552427 109243.902275 
L 533.921359 109243.902275 
L 533.921359 78.901656 
L 520.552427 78.901656 
z
" style="fill:#4695c4;"/>
   </g>
   <g id="patch_35">
    <path clip-path="url(#pc0aa622405)" d="M 536.280583 109243.902275 
L 549.649515 109243.902275 
L 549.649515 74.279994 
L 536.280583 74.279994 
z
" style="fill:#3b88be;"/>
   </g>
   <g id="patch_36">
    <path clip-path="url(#pc0aa622405)" d="M 552.008738 109243.902275 
L 565.37767 109243.902275 
L 565.37767 78.901656 
L 552.008738 78.901656 
z
" style="fill:#337eb8;"/>
   </g>
   <g id="patch_37">
    <path clip-path="url(#pc0aa622405)" d="M 567.736893 109243.902275 
L 581.105825 109243.902275 
L 581.105825 62.629421 
L 567.736893 62.629421 
z
" style="fill:#2a71b2;"/>
   </g>
   <g id="patch_38">
    <path clip-path="url(#pc0aa622405)" d="M 583.465049 109243.902275 
L 596.833981 109243.902275 
L 596.833981 55.455891 
L 583.465049 55.455891 
z
" style="fill:#2267ac;"/>
   </g>
   <g id="patch_39">
    <path clip-path="url(#pc0aa622405)" d="M 599.193204 109243.902275 
L 612.562136 109243.902275 
L 612.562136 63.497968 
L 599.193204 63.497968 
z
" style="fill:#1a5899;"/>
   </g>
   <g id="patch_40">
    <path clip-path="url(#pc0aa622405)" d="M 614.921359 109243.902275 
L 628.290291 109243.902275 
L 628.290291 60.115497 
L 614.921359 60.115497 
z
" style="fill:#134c87;"/>
   </g>
   <g id="patch_41">
    <path clip-path="url(#pc0aa622405)" d="M 630.649515 109243.902275 
L 644.018447 109243.902275 
L 644.018447 35.772908 
L 630.649515 35.772908 
z
" style="fill:#0c3d73;"/>
   </g>
   <g id="patch_42">
    <path clip-path="url(#pc0aa622405)" d="M 646.37767 109243.902275 
L 659.746602 109243.902275 
L 659.746602 17.400817 
L 646.37767 17.400817 
z
" style="fill:#053061;"/>
   </g>
   <g id="patch_43">
    <path d="M 31.8 154.855363 
L 31.8 10.855363 
" style="fill:none;stroke:#000000;stroke-linecap:square;stroke-linejoin:miter;stroke-width:0.8;"/>
   </g>
   <g id="patch_44">
    <path d="M 660.926214 154.855363 
L 660.926214 10.855363 
" style="fill:none;stroke:#000000;stroke-linecap:square;stroke-linejoin:miter;stroke-width:0.8;"/>
   </g>
   <g id="patch_45">
    <path d="M 31.8 154.855363 
L 660.926214 154.855363 
" style="fill:none;stroke:#000000;stroke-linecap:square;stroke-linejoin:miter;stroke-width:0.8;"/>
   </g>
   <g id="patch_46">
    <path d="M 31.8 10.855363 
L 660.926214 10.855363 
" style="fill:none;stroke:#000000;stroke-linecap:square;stroke-linejoin:miter;stroke-width:0.8;"/>
   </g>
   <g id="legend_1">
    <g id="patch_47">
     <path d="M 38.8 33.533488 
L 164.273438 33.533488 
Q 166.273438 33.533488 166.273438 31.533488 
L 166.273438 17.855363 
Q 166.273438 15.855363 164.273438 15.855363 
L 38.8 15.855363 
Q 36.8 15.855363 36.8 17.855363 
L 36.8 31.533488 
Q 36.8 33.533488 38.8 33.533488 
z
" style="fill:#ffffff;opacity:0.8;stroke:#cccccc;stroke-linejoin:miter;"/>
    </g>
    <g id="patch_48">
     <path d="M 40.8 27.4538 
L 60.8 27.4538 
L 60.8 20.4538 
L 40.8 20.4538 
z
" style="fill:#67001f;"/>
    </g>
    <g id="text_10">
     <!-- black-footed ferret -->
     <defs>
      <path d="M 48.6875 27.296875 
Q 48.6875 37.203125 44.609375 42.84375 
Q 40.53125 48.484375 33.40625 48.484375 
Q 26.265625 48.484375 22.1875 42.84375 
Q 18.109375 37.203125 18.109375 27.296875 
Q 18.109375 17.390625 22.1875 11.75 
Q 26.265625 6.109375 33.40625 6.109375 
Q 40.53125 6.109375 44.609375 11.75 
Q 48.6875 17.390625 48.6875 27.296875 
z
M 18.109375 46.390625 
Q 20.953125 51.265625 25.265625 53.625 
Q 29.59375 56 35.59375 56 
Q 45.5625 56 51.78125 48.09375 
Q 58.015625 40.1875 58.015625 27.296875 
Q 58.015625 14.40625 51.78125 6.484375 
Q 45.5625 -1.421875 35.59375 -1.421875 
Q 29.59375 -1.421875 25.265625 0.953125 
Q 20.953125 3.328125 18.109375 8.203125 
L 18.109375 0 
L 9.078125 0 
L 9.078125 75.984375 
L 18.109375 75.984375 
z
" id="DejaVuSans-98"/>
      <path d="M 9.078125 75.984375 
L 18.109375 75.984375 
L 18.109375 31.109375 
L 44.921875 54.6875 
L 56.390625 54.6875 
L 27.390625 29.109375 
L 57.625 0 
L 45.90625 0 
L 18.109375 26.703125 
L 18.109375 0 
L 9.078125 0 
z
" id="DejaVuSans-107"/>
      <path d="M 37.109375 75.984375 
L 37.109375 68.5 
L 28.515625 68.5 
Q 23.6875 68.5 21.796875 66.546875 
Q 19.921875 64.59375 19.921875 59.515625 
L 19.921875 54.6875 
L 34.71875 54.6875 
L 34.71875 47.703125 
L 19.921875 47.703125 
L 19.921875 0 
L 10.890625 0 
L 10.890625 47.703125 
L 2.296875 47.703125 
L 2.296875 54.6875 
L 10.890625 54.6875 
L 10.890625 58.5 
Q 10.890625 67.625 15.140625 71.796875 
Q 19.390625 75.984375 28.609375 75.984375 
z
" id="DejaVuSans-102"/>
      <path d="M 45.40625 46.390625 
L 45.40625 75.984375 
L 54.390625 75.984375 
L 54.390625 0 
L 45.40625 0 
L 45.40625 8.203125 
Q 42.578125 3.328125 38.25 0.953125 
Q 33.9375 -1.421875 27.875 -1.421875 
Q 17.96875 -1.421875 11.734375 6.484375 
Q 5.515625 14.40625 5.515625 27.296875 
Q 5.515625 40.1875 11.734375 48.09375 
Q 17.96875 56 27.875 56 
Q 33.9375 56 38.25 53.625 
Q 42.578125 51.265625 45.40625 46.390625 
z
M 14.796875 27.296875 
Q 14.796875 17.390625 18.875 11.75 
Q 22.953125 6.109375 30.078125 6.109375 
Q 37.203125 6.109375 41.296875 11.75 
Q 45.40625 17.390625 45.40625 27.296875 
Q 45.40625 37.203125 41.296875 42.84375 
Q 37.203125 48.484375 30.078125 48.484375 
Q 22.953125 48.484375 18.875 42.84375 
Q 14.796875 37.203125 14.796875 27.296875 
z
" id="DejaVuSans-100"/>
     </defs>
     <g transform="translate(68.8 27.4538)scale(0.1 -0.1)">
      <use xlink:href="#DejaVuSans-98"/>
      <use x="63.476562" xlink:href="#DejaVuSans-108"/>
      <use x="91.259766" xlink:href="#DejaVuSans-97"/>
      <use x="152.539062" xlink:href="#DejaVuSans-99"/>
      <use x="207.519531" xlink:href="#DejaVuSans-107"/>
      <use x="265.429688" xlink:href="#DejaVuSans-45"/>
      <use x="301.513672" xlink:href="#DejaVuSans-102"/>
      <use x="336.71875" xlink:href="#DejaVuSans-111"/>
      <use x="397.900391" xlink:href="#DejaVuSans-111"/>
      <use x="459.082031" xlink:href="#DejaVuSans-116"/>
      <use x="498.291016" xlink:href="#DejaVuSans-101"/>
      <use x="559.814453" xlink:href="#DejaVuSans-100"/>
      <use x="623.291016" xlink:href="#DejaVuSans-32"/>
      <use x="655.078125" xlink:href="#DejaVuSans-102"/>
      <use x="690.283203" xlink:href="#DejaVuSans-101"/>
      <use x="751.806641" xlink:href="#DejaVuSans-114"/>
      <use x="792.904297" xlink:href="#DejaVuSans-114"/>
      <use x="833.986328" xlink:href="#DejaVuSans-101"/>
      <use x="895.509766" xlink:href="#DejaVuSans-116"/>
     </g>
    </g>
   </g>
  </g>
  <g id="axes_2">
   <g id="patch_49">
    <path d="M 698.673786 154.855363 
L 1327.8 154.855363 
L 1327.8 10.855363 
L 698.673786 10.855363 
z
" style="fill:#ffffff;"/>
   </g>
   <g id="matplotlib.axis_3">
    <g id="xtick_7">
     <g id="line2d_27">
      <path clip-path="url(#pff552fa392)" d="M 698.673786 154.855363 
L 698.673786 10.855363 
" style="fill:none;stroke:#b0b0b0;stroke-linecap:square;stroke-width:0.8;"/>
     </g>
     <g id="line2d_28">
      <g>
       <use style="stroke:#000000;stroke-width:0.8;" x="698.673786" xlink:href="#m948f0887c3" y="154.855363"/>
      </g>
     </g>
     <g id="text_11">
      <!-- 0.0 -->
      <g transform="translate(690.722224 169.4538)scale(0.1 -0.1)">
       <use xlink:href="#DejaVuSans-48"/>
       <use x="63.623047" xlink:href="#DejaVuSans-46"/>
       <use x="95.410156" xlink:href="#DejaVuSans-48"/>
      </g>
     </g>
    </g>
    <g id="xtick_8">
     <g id="line2d_29">
      <path clip-path="url(#pff552fa392)" d="M 824.499029 154.855363 
L 824.499029 10.855363 
" style="fill:none;stroke:#b0b0b0;stroke-linecap:square;stroke-width:0.8;"/>
     </g>
     <g id="line2d_30">
      <g>
       <use style="stroke:#000000;stroke-width:0.8;" x="824.499029" xlink:href="#m948f0887c3" y="154.855363"/>
      </g>
     </g>
     <g id="text_12">
      <!-- 0.2 -->
      <g transform="translate(816.547467 169.4538)scale(0.1 -0.1)">
       <use xlink:href="#DejaVuSans-48"/>
       <use x="63.623047" xlink:href="#DejaVuSans-46"/>
       <use x="95.410156" xlink:href="#DejaVuSans-50"/>
      </g>
     </g>
    </g>
    <g id="xtick_9">
     <g id="line2d_31">
      <path clip-path="url(#pff552fa392)" d="M 950.324272 154.855363 
L 950.324272 10.855363 
" style="fill:none;stroke:#b0b0b0;stroke-linecap:square;stroke-width:0.8;"/>
     </g>
     <g id="line2d_32">
      <g>
       <use style="stroke:#000000;stroke-width:0.8;" x="950.324272" xlink:href="#m948f0887c3" y="154.855363"/>
      </g>
     </g>
     <g id="text_13">
      <!-- 0.4 -->
      <g transform="translate(942.372709 169.4538)scale(0.1 -0.1)">
       <use xlink:href="#DejaVuSans-48"/>
       <use x="63.623047" xlink:href="#DejaVuSans-46"/>
       <use x="95.410156" xlink:href="#DejaVuSans-52"/>
      </g>
     </g>
    </g>
    <g id="xtick_10">
     <g id="line2d_33">
      <path clip-path="url(#pff552fa392)" d="M 1076.149515 154.855363 
L 1076.149515 10.855363 
" style="fill:none;stroke:#b0b0b0;stroke-linecap:square;stroke-width:0.8;"/>
     </g>
     <g id="line2d_34">
      <g>
       <use style="stroke:#000000;stroke-width:0.8;" x="1076.149515" xlink:href="#m948f0887c3" y="154.855363"/>
      </g>
     </g>
     <g id="text_14">
      <!-- 0.6 -->
      <g transform="translate(1068.197952 169.4538)scale(0.1 -0.1)">
       <use xlink:href="#DejaVuSans-48"/>
       <use x="63.623047" xlink:href="#DejaVuSans-46"/>
       <use x="95.410156" xlink:href="#DejaVuSans-54"/>
      </g>
     </g>
    </g>
    <g id="xtick_11">
     <g id="line2d_35">
      <path clip-path="url(#pff552fa392)" d="M 1201.974757 154.855363 
L 1201.974757 10.855363 
" style="fill:none;stroke:#b0b0b0;stroke-linecap:square;stroke-width:0.8;"/>
     </g>
     <g id="line2d_36">
      <g>
       <use style="stroke:#000000;stroke-width:0.8;" x="1201.974757" xlink:href="#m948f0887c3" y="154.855363"/>
      </g>
     </g>
     <g id="text_15">
      <!-- 0.8 -->
      <g transform="translate(1194.023195 169.4538)scale(0.1 -0.1)">
       <use xlink:href="#DejaVuSans-48"/>
       <use x="63.623047" xlink:href="#DejaVuSans-46"/>
       <use x="95.410156" xlink:href="#DejaVuSans-56"/>
      </g>
     </g>
    </g>
    <g id="xtick_12">
     <g id="line2d_37">
      <path clip-path="url(#pff552fa392)" d="M 1327.8 154.855363 
L 1327.8 10.855363 
" style="fill:none;stroke:#b0b0b0;stroke-linecap:square;stroke-width:0.8;"/>
     </g>
     <g id="line2d_38">
      <g>
       <use style="stroke:#000000;stroke-width:0.8;" x="1327.8" xlink:href="#m948f0887c3" y="154.855363"/>
      </g>
     </g>
     <g id="text_16">
      <!-- 1.0 -->
      <g transform="translate(1319.848438 169.4538)scale(0.1 -0.1)">
       <use xlink:href="#DejaVuSans-49"/>
       <use x="63.623047" xlink:href="#DejaVuSans-46"/>
       <use x="95.410156" xlink:href="#DejaVuSans-48"/>
      </g>
     </g>
    </g>
    <g id="text_17">
     <!-- C-score Histogram -->
     <g transform="translate(966.871268 183.131925)scale(0.1 -0.1)">
      <use xlink:href="#DejaVuSans-67"/>
      <use x="69.824219" xlink:href="#DejaVuSans-45"/>
      <use x="105.908203" xlink:href="#DejaVuSans-115"/>
      <use x="158.007812" xlink:href="#DejaVuSans-99"/>
      <use x="212.988281" xlink:href="#DejaVuSans-111"/>
      <use x="274.169922" xlink:href="#DejaVuSans-114"/>
      <use x="315.251953" xlink:href="#DejaVuSans-101"/>
      <use x="376.775391" xlink:href="#DejaVuSans-32"/>
      <use x="408.5625" xlink:href="#DejaVuSans-72"/>
      <use x="483.757812" xlink:href="#DejaVuSans-105"/>
      <use x="511.541016" xlink:href="#DejaVuSans-115"/>
      <use x="563.640625" xlink:href="#DejaVuSans-116"/>
      <use x="602.849609" xlink:href="#DejaVuSans-111"/>
      <use x="664.03125" xlink:href="#DejaVuSans-103"/>
      <use x="727.507812" xlink:href="#DejaVuSans-114"/>
      <use x="768.621094" xlink:href="#DejaVuSans-97"/>
      <use x="829.900391" xlink:href="#DejaVuSans-109"/>
     </g>
    </g>
   </g>
   <g id="matplotlib.axis_4">
    <g id="ytick_13">
     <g id="line2d_39">
      <path clip-path="url(#pff552fa392)" d="M 698.673786 154.855363 
L 1327.8 154.855363 
" style="fill:none;stroke:#b0b0b0;stroke-linecap:square;stroke-width:0.8;"/>
     </g>
     <g id="line2d_40">
      <g>
       <use style="stroke:#000000;stroke-width:0.8;" x="698.673786" xlink:href="#m845a686ef5" y="154.855363"/>
      </g>
     </g>
     <g id="text_18">
      <!-- 0 -->
      <g transform="translate(685.311286 158.654581)scale(0.1 -0.1)">
       <use xlink:href="#DejaVuSans-48"/>
      </g>
     </g>
    </g>
    <g id="ytick_14">
     <g id="line2d_41">
      <path clip-path="url(#pff552fa392)" d="M 698.673786 130.879339 
L 1327.8 130.879339 
" style="fill:none;stroke:#b0b0b0;stroke-linecap:square;stroke-width:0.8;"/>
     </g>
     <g id="line2d_42">
      <g>
       <use style="stroke:#000000;stroke-width:0.8;" x="698.673786" xlink:href="#m845a686ef5" y="130.879339"/>
      </g>
     </g>
     <g id="text_19">
      <!-- 25 -->
      <defs>
       <path d="M 10.796875 72.90625 
L 49.515625 72.90625 
L 49.515625 64.59375 
L 19.828125 64.59375 
L 19.828125 46.734375 
Q 21.96875 47.46875 24.109375 47.828125 
Q 26.265625 48.1875 28.421875 48.1875 
Q 40.625 48.1875 47.75 41.5 
Q 54.890625 34.8125 54.890625 23.390625 
Q 54.890625 11.625 47.5625 5.09375 
Q 40.234375 -1.421875 26.90625 -1.421875 
Q 22.3125 -1.421875 17.546875 -0.640625 
Q 12.796875 0.140625 7.71875 1.703125 
L 7.71875 11.625 
Q 12.109375 9.234375 16.796875 8.0625 
Q 21.484375 6.890625 26.703125 6.890625 
Q 35.15625 6.890625 40.078125 11.328125 
Q 45.015625 15.765625 45.015625 23.390625 
Q 45.015625 31 40.078125 35.4375 
Q 35.15625 39.890625 26.703125 39.890625 
Q 22.75 39.890625 18.8125 39.015625 
Q 14.890625 38.140625 10.796875 36.28125 
z
" id="DejaVuSans-53"/>
      </defs>
      <g transform="translate(678.948786 134.678557)scale(0.1 -0.1)">
       <use xlink:href="#DejaVuSans-50"/>
       <use x="63.623047" xlink:href="#DejaVuSans-53"/>
      </g>
     </g>
    </g>
    <g id="ytick_15">
     <g id="line2d_43">
      <path clip-path="url(#pff552fa392)" d="M 698.673786 106.903315 
L 1327.8 106.903315 
" style="fill:none;stroke:#b0b0b0;stroke-linecap:square;stroke-width:0.8;"/>
     </g>
     <g id="line2d_44">
      <g>
       <use style="stroke:#000000;stroke-width:0.8;" x="698.673786" xlink:href="#m845a686ef5" y="106.903315"/>
      </g>
     </g>
     <g id="text_20">
      <!-- 50 -->
      <g transform="translate(678.948786 110.702533)scale(0.1 -0.1)">
       <use xlink:href="#DejaVuSans-53"/>
       <use x="63.623047" xlink:href="#DejaVuSans-48"/>
      </g>
     </g>
    </g>
    <g id="ytick_16">
     <g id="line2d_45">
      <path clip-path="url(#pff552fa392)" d="M 698.673786 82.927291 
L 1327.8 82.927291 
" style="fill:none;stroke:#b0b0b0;stroke-linecap:square;stroke-width:0.8;"/>
     </g>
     <g id="line2d_46">
      <g>
       <use style="stroke:#000000;stroke-width:0.8;" x="698.673786" xlink:href="#m845a686ef5" y="82.927291"/>
      </g>
     </g>
     <g id="text_21">
      <!-- 75 -->
      <defs>
       <path d="M 8.203125 72.90625 
L 55.078125 72.90625 
L 55.078125 68.703125 
L 28.609375 0 
L 18.3125 0 
L 43.21875 64.59375 
L 8.203125 64.59375 
z
" id="DejaVuSans-55"/>
      </defs>
      <g transform="translate(678.948786 86.726509)scale(0.1 -0.1)">
       <use xlink:href="#DejaVuSans-55"/>
       <use x="63.623047" xlink:href="#DejaVuSans-53"/>
      </g>
     </g>
    </g>
    <g id="ytick_17">
     <g id="line2d_47">
      <path clip-path="url(#pff552fa392)" d="M 698.673786 58.951267 
L 1327.8 58.951267 
" style="fill:none;stroke:#b0b0b0;stroke-linecap:square;stroke-width:0.8;"/>
     </g>
     <g id="line2d_48">
      <g>
       <use style="stroke:#000000;stroke-width:0.8;" x="698.673786" xlink:href="#m845a686ef5" y="58.951267"/>
      </g>
     </g>
     <g id="text_22">
      <!-- 100 -->
      <g transform="translate(672.586286 62.750485)scale(0.1 -0.1)">
       <use xlink:href="#DejaVuSans-49"/>
       <use x="63.623047" xlink:href="#DejaVuSans-48"/>
       <use x="127.246094" xlink:href="#DejaVuSans-48"/>
      </g>
     </g>
    </g>
    <g id="ytick_18">
     <g id="line2d_49">
      <path clip-path="url(#pff552fa392)" d="M 698.673786 34.975243 
L 1327.8 34.975243 
" style="fill:none;stroke:#b0b0b0;stroke-linecap:square;stroke-width:0.8;"/>
     </g>
     <g id="line2d_50">
      <g>
       <use style="stroke:#000000;stroke-width:0.8;" x="698.673786" xlink:href="#m845a686ef5" y="34.975243"/>
      </g>
     </g>
     <g id="text_23">
      <!-- 125 -->
      <g transform="translate(672.586286 38.774461)scale(0.1 -0.1)">
       <use xlink:href="#DejaVuSans-49"/>
       <use x="63.623047" xlink:href="#DejaVuSans-50"/>
       <use x="127.246094" xlink:href="#DejaVuSans-53"/>
      </g>
     </g>
    </g>
    <g id="ytick_19">
     <g id="line2d_51">
      <path clip-path="url(#pff552fa392)" d="M 698.673786 10.999219 
L 1327.8 10.999219 
" style="fill:none;stroke:#b0b0b0;stroke-linecap:square;stroke-width:0.8;"/>
     </g>
     <g id="line2d_52">
      <g>
       <use style="stroke:#000000;stroke-width:0.8;" x="698.673786" xlink:href="#m845a686ef5" y="10.999219"/>
      </g>
     </g>
     <g id="text_24">
      <!-- 150 -->
      <g transform="translate(672.586286 14.798437)scale(0.1 -0.1)">
       <use xlink:href="#DejaVuSans-49"/>
       <use x="63.623047" xlink:href="#DejaVuSans-53"/>
       <use x="127.246094" xlink:href="#DejaVuSans-48"/>
      </g>
     </g>
    </g>
   </g>
   <g id="patch_50">
    <path clip-path="url(#pff552fa392)" d="M 699.853398 154.855363 
L 713.22233 154.855363 
L 713.22233 79.091127 
L 699.853398 79.091127 
z
" style="fill:#67001f;"/>
   </g>
   <g id="patch_51">
    <path clip-path="url(#pff552fa392)" d="M 715.581553 154.855363 
L 728.950485 154.855363 
L 728.950485 131.83838 
L 715.581553 131.83838 
z
" style="fill:#790622;"/>
   </g>
   <g id="patch_52">
    <path clip-path="url(#pff552fa392)" d="M 731.309709 154.855363 
L 744.678641 154.855363 
L 744.678641 141.428789 
L 731.309709 141.428789 
z
" style="fill:#8d0c25;"/>
   </g>
   <g id="patch_53">
    <path clip-path="url(#pff552fa392)" d="M 747.037864 154.855363 
L 760.406796 154.855363 
L 760.406796 139.510707 
L 747.037864 139.510707 
z
" style="fill:#9f1228;"/>
   </g>
   <g id="patch_54">
    <path clip-path="url(#pff552fa392)" d="M 762.766019 154.855363 
L 776.134951 154.855363 
L 776.134951 136.633584 
L 762.766019 136.633584 
z
" style="fill:#b3192c;"/>
   </g>
   <g id="patch_55">
    <path clip-path="url(#pff552fa392)" d="M 778.494175 154.855363 
L 791.863107 154.855363 
L 791.863107 144.305912 
L 778.494175 144.305912 
z
" style="fill:#bb2a34;"/>
   </g>
   <g id="patch_56">
    <path clip-path="url(#pff552fa392)" d="M 794.22233 154.855363 
L 807.591262 154.855363 
L 807.591262 142.38783 
L 794.22233 142.38783 
z
" style="fill:#c53e3d;"/>
   </g>
   <g id="patch_57">
    <path clip-path="url(#pff552fa392)" d="M 809.950485 154.855363 
L 823.319417 154.855363 
L 823.319417 139.510707 
L 809.950485 139.510707 
z
" style="fill:#ce4f45;"/>
   </g>
   <g id="patch_58">
    <path clip-path="url(#pff552fa392)" d="M 825.678641 154.855363 
L 839.047573 154.855363 
L 839.047573 133.756462 
L 825.678641 133.756462 
z
" style="fill:#d7634f;"/>
   </g>
   <g id="patch_59">
    <path clip-path="url(#pff552fa392)" d="M 841.406796 154.855363 
L 854.775728 154.855363 
L 854.775728 129.920298 
L 841.406796 129.920298 
z
" style="fill:#df765e;"/>
   </g>
   <g id="patch_60">
    <path clip-path="url(#pff552fa392)" d="M 857.134951 154.855363 
L 870.503883 154.855363 
L 870.503883 135.674543 
L 857.134951 135.674543 
z
" style="fill:#e6866a;"/>
   </g>
   <g id="patch_61">
    <path clip-path="url(#pff552fa392)" d="M 872.863107 154.855363 
L 886.232039 154.855363 
L 886.232039 143.346871 
L 872.863107 143.346871 
z
" style="fill:#ef9979;"/>
   </g>
   <g id="patch_62">
    <path clip-path="url(#pff552fa392)" d="M 888.591262 154.855363 
L 901.960194 154.855363 
L 901.960194 146.223994 
L 888.591262 146.223994 
z
" style="fill:#f5a886;"/>
   </g>
   <g id="patch_63">
    <path clip-path="url(#pff552fa392)" d="M 904.319417 154.855363 
L 917.68835 154.855363 
L 917.68835 135.674543 
L 904.319417 135.674543 
z
" style="fill:#f7b799;"/>
   </g>
   <g id="patch_64">
    <path clip-path="url(#pff552fa392)" d="M 920.047573 154.855363 
L 933.416505 154.855363 
L 933.416505 133.756462 
L 920.047573 133.756462 
z
" style="fill:#f9c4a9;"/>
   </g>
   <g id="patch_65">
    <path clip-path="url(#pff552fa392)" d="M 935.775728 154.855363 
L 949.14466 154.855363 
L 949.14466 131.83838 
L 935.775728 131.83838 
z
" style="fill:#fcd3bc;"/>
   </g>
   <g id="patch_66">
    <path clip-path="url(#pff552fa392)" d="M 951.503883 154.855363 
L 964.872816 154.855363 
L 964.872816 138.551666 
L 951.503883 138.551666 
z
" style="fill:#fcdecd;"/>
   </g>
   <g id="patch_67">
    <path clip-path="url(#pff552fa392)" d="M 967.232039 154.855363 
L 980.600971 154.855363 
L 980.600971 131.83838 
L 967.232039 131.83838 
z
" style="fill:#fbe5d8;"/>
   </g>
   <g id="patch_68">
    <path clip-path="url(#pff552fa392)" d="M 982.960194 154.855363 
L 996.329126 154.855363 
L 996.329126 128.002216 
L 982.960194 128.002216 
z
" style="fill:#f9ede5;"/>
   </g>
   <g id="patch_69">
    <path clip-path="url(#pff552fa392)" d="M 998.68835 154.855363 
L 1012.057282 154.855363 
L 1012.057282 143.346871 
L 998.68835 143.346871 
z
" style="fill:#f8f3f0;"/>
   </g>
   <g id="patch_70">
    <path clip-path="url(#pff552fa392)" d="M 1014.416505 154.855363 
L 1027.785437 154.855363 
L 1027.785437 129.920298 
L 1014.416505 129.920298 
z
" style="fill:#f2f5f6;"/>
   </g>
   <g id="patch_71">
    <path clip-path="url(#pff552fa392)" d="M 1030.14466 154.855363 
L 1043.513592 154.855363 
L 1043.513592 137.592625 
L 1030.14466 137.592625 
z
" style="fill:#e9f0f4;"/>
   </g>
   <g id="patch_72">
    <path clip-path="url(#pff552fa392)" d="M 1045.872816 154.855363 
L 1059.241748 154.855363 
L 1059.241748 136.633584 
L 1045.872816 136.633584 
z
" style="fill:#deebf2;"/>
   </g>
   <g id="patch_73">
    <path clip-path="url(#pff552fa392)" d="M 1061.600971 154.855363 
L 1074.969903 154.855363 
L 1074.969903 130.879339 
L 1061.600971 130.879339 
z
" style="fill:#d5e7f1;"/>
   </g>
   <g id="patch_74">
    <path clip-path="url(#pff552fa392)" d="M 1077.329126 154.855363 
L 1090.698058 154.855363 
L 1090.698058 128.961257 
L 1077.329126 128.961257 
z
" style="fill:#c7e0ed;"/>
   </g>
   <g id="patch_75">
    <path clip-path="url(#pff552fa392)" d="M 1093.057282 154.855363 
L 1106.426214 154.855363 
L 1106.426214 128.002216 
L 1093.057282 128.002216 
z
" style="fill:#b6d7e8;"/>
   </g>
   <g id="patch_76">
    <path clip-path="url(#pff552fa392)" d="M 1108.785437 154.855363 
L 1122.154369 154.855363 
L 1122.154369 138.551666 
L 1108.785437 138.551666 
z
" style="fill:#a7d0e4;"/>
   </g>
   <g id="patch_77">
    <path clip-path="url(#pff552fa392)" d="M 1124.513592 154.855363 
L 1137.882524 154.855363 
L 1137.882524 122.24797 
L 1124.513592 122.24797 
z
" style="fill:#96c7df;"/>
   </g>
   <g id="patch_78">
    <path clip-path="url(#pff552fa392)" d="M 1140.241748 154.855363 
L 1153.61068 154.855363 
L 1153.61068 128.002216 
L 1140.241748 128.002216 
z
" style="fill:#84bcd9;"/>
   </g>
   <g id="patch_79">
    <path clip-path="url(#pff552fa392)" d="M 1155.969903 154.855363 
L 1169.338835 154.855363 
L 1169.338835 126.084134 
L 1155.969903 126.084134 
z
" style="fill:#6eaed2;"/>
   </g>
   <g id="patch_80">
    <path clip-path="url(#pff552fa392)" d="M 1171.698058 154.855363 
L 1185.06699 154.855363 
L 1185.06699 128.002216 
L 1171.698058 128.002216 
z
" style="fill:#5ca3cb;"/>
   </g>
   <g id="patch_81">
    <path clip-path="url(#pff552fa392)" d="M 1187.426214 154.855363 
L 1200.795146 154.855363 
L 1200.795146 117.452765 
L 1187.426214 117.452765 
z
" style="fill:#4695c4;"/>
   </g>
   <g id="patch_82">
    <path clip-path="url(#pff552fa392)" d="M 1203.154369 154.855363 
L 1216.523301 154.855363 
L 1216.523301 113.616601 
L 1203.154369 113.616601 
z
" style="fill:#3b88be;"/>
   </g>
   <g id="patch_83">
    <path clip-path="url(#pff552fa392)" d="M 1218.882524 154.855363 
L 1232.251456 154.855363 
L 1232.251456 117.452765 
L 1218.882524 117.452765 
z
" style="fill:#337eb8;"/>
   </g>
   <g id="patch_84">
    <path clip-path="url(#pff552fa392)" d="M 1234.61068 154.855363 
L 1247.979612 154.855363 
L 1247.979612 102.10811 
L 1234.61068 102.10811 
z
" style="fill:#2a71b2;"/>
   </g>
   <g id="patch_85">
    <path clip-path="url(#pff552fa392)" d="M 1250.338835 154.855363 
L 1263.707767 154.855363 
L 1263.707767 93.476741 
L 1250.338835 93.476741 
z
" style="fill:#2267ac;"/>
   </g>
   <g id="patch_86">
    <path clip-path="url(#pff552fa392)" d="M 1266.06699 154.855363 
L 1279.435922 154.855363 
L 1279.435922 103.067151 
L 1266.06699 103.067151 
z
" style="fill:#1a5899;"/>
   </g>
   <g id="patch_87">
    <path clip-path="url(#pff552fa392)" d="M 1281.795146 154.855363 
L 1295.164078 154.855363 
L 1295.164078 99.230987 
L 1281.795146 99.230987 
z
" style="fill:#134c87;"/>
   </g>
   <g id="patch_88">
    <path clip-path="url(#pff552fa392)" d="M 1297.523301 154.855363 
L 1310.892233 154.855363 
L 1310.892233 61.82839 
L 1297.523301 61.82839 
z
" style="fill:#0c3d73;"/>
   </g>
   <g id="patch_89">
    <path clip-path="url(#pff552fa392)" d="M 1313.251456 154.855363 
L 1326.620388 154.855363 
L 1326.620388 17.712505 
L 1313.251456 17.712505 
z
" style="fill:#053061;"/>
   </g>
   <g id="patch_90">
    <path d="M 698.673786 154.855363 
L 698.673786 10.855363 
" style="fill:none;stroke:#000000;stroke-linecap:square;stroke-linejoin:miter;stroke-width:0.8;"/>
   </g>
   <g id="patch_91">
    <path d="M 1327.8 154.855363 
L 1327.8 10.855363 
" style="fill:none;stroke:#000000;stroke-linecap:square;stroke-linejoin:miter;stroke-width:0.8;"/>
   </g>
   <g id="patch_92">
    <path d="M 698.673786 154.855363 
L 1327.8 154.855363 
" style="fill:none;stroke:#000000;stroke-linecap:square;stroke-linejoin:miter;stroke-width:0.8;"/>
   </g>
   <g id="patch_93">
    <path d="M 698.673786 10.855363 
L 1327.8 10.855363 
" style="fill:none;stroke:#000000;stroke-linecap:square;stroke-linejoin:miter;stroke-width:0.8;"/>
   </g>
  </g>
 </g>
 <defs>
  <clipPath id="pc0aa622405">
   <rect height="144" width="629.126214" x="31.8" y="10.855363"/>
  </clipPath>
  <clipPath id="pff552fa392">
   <rect height="144" width="629.126214" x="698.673786" y="10.855363"/>
  </clipPath>
 </defs>
</svg>
