<?xml version="1.0" encoding="utf-8" standalone="no"?>
<!DOCTYPE svg PUBLIC "-//W3C//DTD SVG 1.1//EN"
  "http://www.w3.org/Graphics/SVG/1.1/DTD/svg11.dtd">
<!-- Created with matplotlib (https://matplotlib.org/) -->
<svg height="192.916371pt" version="1.1" viewBox="0 0 1342.951562 192.916371" width="1342.951562pt" xmlns="http://www.w3.org/2000/svg" xmlns:xlink="http://www.w3.org/1999/xlink">
 <defs>
  <style type="text/css">
*{stroke-linecap:butt;stroke-linejoin:round;}
  </style>
 </defs>
 <g id="figure_1">
  <g id="patch_1">
   <path d="M 0 192.916371 
L 1342.951563 192.916371 
L 1342.951563 0 
L 0 0 
z
" style="fill:#ffffff;"/>
  </g>
  <g id="axes_1">
   <g id="patch_2">
    <path d="M 31.8 155.360121 
L 660.926214 155.360121 
L 660.926214 11.360121 
L 31.8 11.360121 
z
" style="fill:#ffffff;"/>
   </g>
   <g id="matplotlib.axis_1">
    <g id="xtick_1">
     <g id="line2d_1">
      <path clip-path="url(#p869563582a)" d="M 31.8 155.360121 
L 31.8 11.360121 
" style="fill:none;stroke:#b0b0b0;stroke-linecap:square;stroke-width:0.8;"/>
     </g>
     <g id="line2d_2">
      <defs>
       <path d="M 0 0 
L 0 3.5 
" id="m11b4c68372" style="stroke:#000000;stroke-width:0.8;"/>
      </defs>
      <g>
       <use style="stroke:#000000;stroke-width:0.8;" x="31.8" xlink:href="#m11b4c68372" y="155.360121"/>
      </g>
     </g>
     <g id="text_1">
      <!-- 0.0 -->
      <defs>
       <path d="M 31.78125 66.40625 
Q 24.171875 66.40625 20.328125 58.90625 
Q 16.5 51.421875 16.5 36.375 
Q 16.5 21.390625 20.328125 13.890625 
Q 24.171875 6.390625 31.78125 6.390625 
Q 39.453125 6.390625 43.28125 13.890625 
Q 47.125 21.390625 47.125 36.375 
Q 47.125 51.421875 43.28125 58.90625 
Q 39.453125 66.40625 31.78125 66.40625 
z
M 31.78125 74.21875 
Q 44.046875 74.21875 50.515625 64.515625 
Q 56.984375 54.828125 56.984375 36.375 
Q 56.984375 17.96875 50.515625 8.265625 
Q 44.046875 -1.421875 31.78125 -1.421875 
Q 19.53125 -1.421875 13.0625 8.265625 
Q 6.59375 17.96875 6.59375 36.375 
Q 6.59375 54.828125 13.0625 64.515625 
Q 19.53125 74.21875 31.78125 74.21875 
z
" id="DejaVuSans-48"/>
       <path d="M 10.6875 12.40625 
L 21 12.40625 
L 21 0 
L 10.6875 0 
z
" id="DejaVuSans-46"/>
      </defs>
      <g transform="translate(23.848437 169.958559)scale(0.1 -0.1)">
       <use xlink:href="#DejaVuSans-48"/>
       <use x="63.623047" xlink:href="#DejaVuSans-46"/>
       <use x="95.410156" xlink:href="#DejaVuSans-48"/>
      </g>
     </g>
    </g>
    <g id="xtick_2">
     <g id="line2d_3">
      <path clip-path="url(#p869563582a)" d="M 157.625243 155.360121 
L 157.625243 11.360121 
" style="fill:none;stroke:#b0b0b0;stroke-linecap:square;stroke-width:0.8;"/>
     </g>
     <g id="line2d_4">
      <g>
       <use style="stroke:#000000;stroke-width:0.8;" x="157.625243" xlink:href="#m11b4c68372" y="155.360121"/>
      </g>
     </g>
     <g id="text_2">
      <!-- 0.2 -->
      <defs>
       <path d="M 19.1875 8.296875 
L 53.609375 8.296875 
L 53.609375 0 
L 7.328125 0 
L 7.328125 8.296875 
Q 12.9375 14.109375 22.625 23.890625 
Q 32.328125 33.6875 34.8125 36.53125 
Q 39.546875 41.84375 41.421875 45.53125 
Q 43.3125 49.21875 43.3125 52.78125 
Q 43.3125 58.59375 39.234375 62.25 
Q 35.15625 65.921875 28.609375 65.921875 
Q 23.96875 65.921875 18.8125 64.3125 
Q 13.671875 62.703125 7.8125 59.421875 
L 7.8125 69.390625 
Q 13.765625 71.78125 18.9375 73 
Q 24.125 74.21875 28.421875 74.21875 
Q 39.75 74.21875 46.484375 68.546875 
Q 53.21875 62.890625 53.21875 53.421875 
Q 53.21875 48.921875 51.53125 44.890625 
Q 49.859375 40.875 45.40625 35.40625 
Q 44.1875 33.984375 37.640625 27.21875 
Q 31.109375 20.453125 19.1875 8.296875 
z
" id="DejaVuSans-50"/>
      </defs>
      <g transform="translate(149.67368 169.958559)scale(0.1 -0.1)">
       <use xlink:href="#DejaVuSans-48"/>
       <use x="63.623047" xlink:href="#DejaVuSans-46"/>
       <use x="95.410156" xlink:href="#DejaVuSans-50"/>
      </g>
     </g>
    </g>
    <g id="xtick_3">
     <g id="line2d_5">
      <path clip-path="url(#p869563582a)" d="M 283.450485 155.360121 
L 283.450485 11.360121 
" style="fill:none;stroke:#b0b0b0;stroke-linecap:square;stroke-width:0.8;"/>
     </g>
     <g id="line2d_6">
      <g>
       <use style="stroke:#000000;stroke-width:0.8;" x="283.450485" xlink:href="#m11b4c68372" y="155.360121"/>
      </g>
     </g>
     <g id="text_3">
      <!-- 0.4 -->
      <defs>
       <path d="M 37.796875 64.3125 
L 12.890625 25.390625 
L 37.796875 25.390625 
z
M 35.203125 72.90625 
L 47.609375 72.90625 
L 47.609375 25.390625 
L 58.015625 25.390625 
L 58.015625 17.1875 
L 47.609375 17.1875 
L 47.609375 0 
L 37.796875 0 
L 37.796875 17.1875 
L 4.890625 17.1875 
L 4.890625 26.703125 
z
" id="DejaVuSans-52"/>
      </defs>
      <g transform="translate(275.498923 169.958559)scale(0.1 -0.1)">
       <use xlink:href="#DejaVuSans-48"/>
       <use x="63.623047" xlink:href="#DejaVuSans-46"/>
       <use x="95.410156" xlink:href="#DejaVuSans-52"/>
      </g>
     </g>
    </g>
    <g id="xtick_4">
     <g id="line2d_7">
      <path clip-path="url(#p869563582a)" d="M 409.275728 155.360121 
L 409.275728 11.360121 
" style="fill:none;stroke:#b0b0b0;stroke-linecap:square;stroke-width:0.8;"/>
     </g>
     <g id="line2d_8">
      <g>
       <use style="stroke:#000000;stroke-width:0.8;" x="409.275728" xlink:href="#m11b4c68372" y="155.360121"/>
      </g>
     </g>
     <g id="text_4">
      <!-- 0.6 -->
      <defs>
       <path d="M 33.015625 40.375 
Q 26.375 40.375 22.484375 35.828125 
Q 18.609375 31.296875 18.609375 23.390625 
Q 18.609375 15.53125 22.484375 10.953125 
Q 26.375 6.390625 33.015625 6.390625 
Q 39.65625 6.390625 43.53125 10.953125 
Q 47.40625 15.53125 47.40625 23.390625 
Q 47.40625 31.296875 43.53125 35.828125 
Q 39.65625 40.375 33.015625 40.375 
z
M 52.59375 71.296875 
L 52.59375 62.3125 
Q 48.875 64.0625 45.09375 64.984375 
Q 41.3125 65.921875 37.59375 65.921875 
Q 27.828125 65.921875 22.671875 59.328125 
Q 17.53125 52.734375 16.796875 39.40625 
Q 19.671875 43.65625 24.015625 45.921875 
Q 28.375 48.1875 33.59375 48.1875 
Q 44.578125 48.1875 50.953125 41.515625 
Q 57.328125 34.859375 57.328125 23.390625 
Q 57.328125 12.15625 50.6875 5.359375 
Q 44.046875 -1.421875 33.015625 -1.421875 
Q 20.359375 -1.421875 13.671875 8.265625 
Q 6.984375 17.96875 6.984375 36.375 
Q 6.984375 53.65625 15.1875 63.9375 
Q 23.390625 74.21875 37.203125 74.21875 
Q 40.921875 74.21875 44.703125 73.484375 
Q 48.484375 72.75 52.59375 71.296875 
z
" id="DejaVuSans-54"/>
      </defs>
      <g transform="translate(401.324166 169.958559)scale(0.1 -0.1)">
       <use xlink:href="#DejaVuSans-48"/>
       <use x="63.623047" xlink:href="#DejaVuSans-46"/>
       <use x="95.410156" xlink:href="#DejaVuSans-54"/>
      </g>
     </g>
    </g>
    <g id="xtick_5">
     <g id="line2d_9">
      <path clip-path="url(#p869563582a)" d="M 535.100971 155.360121 
L 535.100971 11.360121 
" style="fill:none;stroke:#b0b0b0;stroke-linecap:square;stroke-width:0.8;"/>
     </g>
     <g id="line2d_10">
      <g>
       <use style="stroke:#000000;stroke-width:0.8;" x="535.100971" xlink:href="#m11b4c68372" y="155.360121"/>
      </g>
     </g>
     <g id="text_5">
      <!-- 0.8 -->
      <defs>
       <path d="M 31.78125 34.625 
Q 24.75 34.625 20.71875 30.859375 
Q 16.703125 27.09375 16.703125 20.515625 
Q 16.703125 13.921875 20.71875 10.15625 
Q 24.75 6.390625 31.78125 6.390625 
Q 38.8125 6.390625 42.859375 10.171875 
Q 46.921875 13.96875 46.921875 20.515625 
Q 46.921875 27.09375 42.890625 30.859375 
Q 38.875 34.625 31.78125 34.625 
z
M 21.921875 38.8125 
Q 15.578125 40.375 12.03125 44.71875 
Q 8.5 49.078125 8.5 55.328125 
Q 8.5 64.0625 14.71875 69.140625 
Q 20.953125 74.21875 31.78125 74.21875 
Q 42.671875 74.21875 48.875 69.140625 
Q 55.078125 64.0625 55.078125 55.328125 
Q 55.078125 49.078125 51.53125 44.71875 
Q 48 40.375 41.703125 38.8125 
Q 48.828125 37.15625 52.796875 32.3125 
Q 56.78125 27.484375 56.78125 20.515625 
Q 56.78125 9.90625 50.3125 4.234375 
Q 43.84375 -1.421875 31.78125 -1.421875 
Q 19.734375 -1.421875 13.25 4.234375 
Q 6.78125 9.90625 6.78125 20.515625 
Q 6.78125 27.484375 10.78125 32.3125 
Q 14.796875 37.15625 21.921875 38.8125 
z
M 18.3125 54.390625 
Q 18.3125 48.734375 21.84375 45.5625 
Q 25.390625 42.390625 31.78125 42.390625 
Q 38.140625 42.390625 41.71875 45.5625 
Q 45.3125 48.734375 45.3125 54.390625 
Q 45.3125 60.0625 41.71875 63.234375 
Q 38.140625 66.40625 31.78125 66.40625 
Q 25.390625 66.40625 21.84375 63.234375 
Q 18.3125 60.0625 18.3125 54.390625 
z
" id="DejaVuSans-56"/>
      </defs>
      <g transform="translate(527.149408 169.958559)scale(0.1 -0.1)">
       <use xlink:href="#DejaVuSans-48"/>
       <use x="63.623047" xlink:href="#DejaVuSans-46"/>
       <use x="95.410156" xlink:href="#DejaVuSans-56"/>
      </g>
     </g>
    </g>
    <g id="xtick_6">
     <g id="line2d_11">
      <path clip-path="url(#p869563582a)" d="M 660.926214 155.360121 
L 660.926214 11.360121 
" style="fill:none;stroke:#b0b0b0;stroke-linecap:square;stroke-width:0.8;"/>
     </g>
     <g id="line2d_12">
      <g>
       <use style="stroke:#000000;stroke-width:0.8;" x="660.926214" xlink:href="#m11b4c68372" y="155.360121"/>
      </g>
     </g>
     <g id="text_6">
      <!-- 1.0 -->
      <defs>
       <path d="M 12.40625 8.296875 
L 28.515625 8.296875 
L 28.515625 63.921875 
L 10.984375 60.40625 
L 10.984375 69.390625 
L 28.421875 72.90625 
L 38.28125 72.90625 
L 38.28125 8.296875 
L 54.390625 8.296875 
L 54.390625 0 
L 12.40625 0 
z
" id="DejaVuSans-49"/>
      </defs>
      <g transform="translate(652.974651 169.958559)scale(0.1 -0.1)">
       <use xlink:href="#DejaVuSans-49"/>
       <use x="63.623047" xlink:href="#DejaVuSans-46"/>
       <use x="95.410156" xlink:href="#DejaVuSans-48"/>
      </g>
     </g>
    </g>
    <g id="text_7">
     <!-- C-score Histogram (log scale) -->
     <defs>
      <path d="M 64.40625 67.28125 
L 64.40625 56.890625 
Q 59.421875 61.53125 53.78125 63.8125 
Q 48.140625 66.109375 41.796875 66.109375 
Q 29.296875 66.109375 22.65625 58.46875 
Q 16.015625 50.828125 16.015625 36.375 
Q 16.015625 21.96875 22.65625 14.328125 
Q 29.296875 6.6875 41.796875 6.6875 
Q 48.140625 6.6875 53.78125 8.984375 
Q 59.421875 11.28125 64.40625 15.921875 
L 64.40625 5.609375 
Q 59.234375 2.09375 53.4375 0.328125 
Q 47.65625 -1.421875 41.21875 -1.421875 
Q 24.65625 -1.421875 15.125 8.703125 
Q 5.609375 18.84375 5.609375 36.375 
Q 5.609375 53.953125 15.125 64.078125 
Q 24.65625 74.21875 41.21875 74.21875 
Q 47.75 74.21875 53.53125 72.484375 
Q 59.328125 70.75 64.40625 67.28125 
z
" id="DejaVuSans-67"/>
      <path d="M 4.890625 31.390625 
L 31.203125 31.390625 
L 31.203125 23.390625 
L 4.890625 23.390625 
z
" id="DejaVuSans-45"/>
      <path d="M 44.28125 53.078125 
L 44.28125 44.578125 
Q 40.484375 46.53125 36.375 47.5 
Q 32.28125 48.484375 27.875 48.484375 
Q 21.1875 48.484375 17.84375 46.4375 
Q 14.5 44.390625 14.5 40.28125 
Q 14.5 37.15625 16.890625 35.375 
Q 19.28125 33.59375 26.515625 31.984375 
L 29.59375 31.296875 
Q 39.15625 29.25 43.1875 25.515625 
Q 47.21875 21.78125 47.21875 15.09375 
Q 47.21875 7.46875 41.1875 3.015625 
Q 35.15625 -1.421875 24.609375 -1.421875 
Q 20.21875 -1.421875 15.453125 -0.5625 
Q 10.6875 0.296875 5.421875 2 
L 5.421875 11.28125 
Q 10.40625 8.6875 15.234375 7.390625 
Q 20.0625 6.109375 24.8125 6.109375 
Q 31.15625 6.109375 34.5625 8.28125 
Q 37.984375 10.453125 37.984375 14.40625 
Q 37.984375 18.0625 35.515625 20.015625 
Q 33.0625 21.96875 24.703125 23.78125 
L 21.578125 24.515625 
Q 13.234375 26.265625 9.515625 29.90625 
Q 5.8125 33.546875 5.8125 39.890625 
Q 5.8125 47.609375 11.28125 51.796875 
Q 16.75 56 26.8125 56 
Q 31.78125 56 36.171875 55.265625 
Q 40.578125 54.546875 44.28125 53.078125 
z
" id="DejaVuSans-115"/>
      <path d="M 48.78125 52.59375 
L 48.78125 44.1875 
Q 44.96875 46.296875 41.140625 47.34375 
Q 37.3125 48.390625 33.40625 48.390625 
Q 24.65625 48.390625 19.8125 42.84375 
Q 14.984375 37.3125 14.984375 27.296875 
Q 14.984375 17.28125 19.8125 11.734375 
Q 24.65625 6.203125 33.40625 6.203125 
Q 37.3125 6.203125 41.140625 7.25 
Q 44.96875 8.296875 48.78125 10.40625 
L 48.78125 2.09375 
Q 45.015625 0.34375 40.984375 -0.53125 
Q 36.96875 -1.421875 32.421875 -1.421875 
Q 20.0625 -1.421875 12.78125 6.34375 
Q 5.515625 14.109375 5.515625 27.296875 
Q 5.515625 40.671875 12.859375 48.328125 
Q 20.21875 56 33.015625 56 
Q 37.15625 56 41.109375 55.140625 
Q 45.0625 54.296875 48.78125 52.59375 
z
" id="DejaVuSans-99"/>
      <path d="M 30.609375 48.390625 
Q 23.390625 48.390625 19.1875 42.75 
Q 14.984375 37.109375 14.984375 27.296875 
Q 14.984375 17.484375 19.15625 11.84375 
Q 23.34375 6.203125 30.609375 6.203125 
Q 37.796875 6.203125 41.984375 11.859375 
Q 46.1875 17.53125 46.1875 27.296875 
Q 46.1875 37.015625 41.984375 42.703125 
Q 37.796875 48.390625 30.609375 48.390625 
z
M 30.609375 56 
Q 42.328125 56 49.015625 48.375 
Q 55.71875 40.765625 55.71875 27.296875 
Q 55.71875 13.875 49.015625 6.21875 
Q 42.328125 -1.421875 30.609375 -1.421875 
Q 18.84375 -1.421875 12.171875 6.21875 
Q 5.515625 13.875 5.515625 27.296875 
Q 5.515625 40.765625 12.171875 48.375 
Q 18.84375 56 30.609375 56 
z
" id="DejaVuSans-111"/>
      <path d="M 41.109375 46.296875 
Q 39.59375 47.171875 37.8125 47.578125 
Q 36.03125 48 33.890625 48 
Q 26.265625 48 22.1875 43.046875 
Q 18.109375 38.09375 18.109375 28.8125 
L 18.109375 0 
L 9.078125 0 
L 9.078125 54.6875 
L 18.109375 54.6875 
L 18.109375 46.1875 
Q 20.953125 51.171875 25.484375 53.578125 
Q 30.03125 56 36.53125 56 
Q 37.453125 56 38.578125 55.875 
Q 39.703125 55.765625 41.0625 55.515625 
z
" id="DejaVuSans-114"/>
      <path d="M 56.203125 29.59375 
L 56.203125 25.203125 
L 14.890625 25.203125 
Q 15.484375 15.921875 20.484375 11.0625 
Q 25.484375 6.203125 34.421875 6.203125 
Q 39.59375 6.203125 44.453125 7.46875 
Q 49.3125 8.734375 54.109375 11.28125 
L 54.109375 2.78125 
Q 49.265625 0.734375 44.1875 -0.34375 
Q 39.109375 -1.421875 33.890625 -1.421875 
Q 20.796875 -1.421875 13.15625 6.1875 
Q 5.515625 13.8125 5.515625 26.8125 
Q 5.515625 40.234375 12.765625 48.109375 
Q 20.015625 56 32.328125 56 
Q 43.359375 56 49.78125 48.890625 
Q 56.203125 41.796875 56.203125 29.59375 
z
M 47.21875 32.234375 
Q 47.125 39.59375 43.09375 43.984375 
Q 39.0625 48.390625 32.421875 48.390625 
Q 24.90625 48.390625 20.390625 44.140625 
Q 15.875 39.890625 15.1875 32.171875 
z
" id="DejaVuSans-101"/>
      <path id="DejaVuSans-32"/>
      <path d="M 9.8125 72.90625 
L 19.671875 72.90625 
L 19.671875 43.015625 
L 55.515625 43.015625 
L 55.515625 72.90625 
L 65.375 72.90625 
L 65.375 0 
L 55.515625 0 
L 55.515625 34.71875 
L 19.671875 34.71875 
L 19.671875 0 
L 9.8125 0 
z
" id="DejaVuSans-72"/>
      <path d="M 9.421875 54.6875 
L 18.40625 54.6875 
L 18.40625 0 
L 9.421875 0 
z
M 9.421875 75.984375 
L 18.40625 75.984375 
L 18.40625 64.59375 
L 9.421875 64.59375 
z
" id="DejaVuSans-105"/>
      <path d="M 18.3125 70.21875 
L 18.3125 54.6875 
L 36.8125 54.6875 
L 36.8125 47.703125 
L 18.3125 47.703125 
L 18.3125 18.015625 
Q 18.3125 11.328125 20.140625 9.421875 
Q 21.96875 7.515625 27.59375 7.515625 
L 36.8125 7.515625 
L 36.8125 0 
L 27.59375 0 
Q 17.1875 0 13.234375 3.875 
Q 9.28125 7.765625 9.28125 18.015625 
L 9.28125 47.703125 
L 2.6875 47.703125 
L 2.6875 54.6875 
L 9.28125 54.6875 
L 9.28125 70.21875 
z
" id="DejaVuSans-116"/>
      <path d="M 45.40625 27.984375 
Q 45.40625 37.75 41.375 43.109375 
Q 37.359375 48.484375 30.078125 48.484375 
Q 22.859375 48.484375 18.828125 43.109375 
Q 14.796875 37.75 14.796875 27.984375 
Q 14.796875 18.265625 18.828125 12.890625 
Q 22.859375 7.515625 30.078125 7.515625 
Q 37.359375 7.515625 41.375 12.890625 
Q 45.40625 18.265625 45.40625 27.984375 
z
M 54.390625 6.78125 
Q 54.390625 -7.171875 48.1875 -13.984375 
Q 42 -20.796875 29.203125 -20.796875 
Q 24.46875 -20.796875 20.265625 -20.09375 
Q 16.0625 -19.390625 12.109375 -17.921875 
L 12.109375 -9.1875 
Q 16.0625 -11.328125 19.921875 -12.34375 
Q 23.78125 -13.375 27.78125 -13.375 
Q 36.625 -13.375 41.015625 -8.765625 
Q 45.40625 -4.15625 45.40625 5.171875 
L 45.40625 9.625 
Q 42.625 4.78125 38.28125 2.390625 
Q 33.9375 0 27.875 0 
Q 17.828125 0 11.671875 7.65625 
Q 5.515625 15.328125 5.515625 27.984375 
Q 5.515625 40.671875 11.671875 48.328125 
Q 17.828125 56 27.875 56 
Q 33.9375 56 38.28125 53.609375 
Q 42.625 51.21875 45.40625 46.390625 
L 45.40625 54.6875 
L 54.390625 54.6875 
z
" id="DejaVuSans-103"/>
      <path d="M 34.28125 27.484375 
Q 23.390625 27.484375 19.1875 25 
Q 14.984375 22.515625 14.984375 16.5 
Q 14.984375 11.71875 18.140625 8.90625 
Q 21.296875 6.109375 26.703125 6.109375 
Q 34.1875 6.109375 38.703125 11.40625 
Q 43.21875 16.703125 43.21875 25.484375 
L 43.21875 27.484375 
z
M 52.203125 31.203125 
L 52.203125 0 
L 43.21875 0 
L 43.21875 8.296875 
Q 40.140625 3.328125 35.546875 0.953125 
Q 30.953125 -1.421875 24.3125 -1.421875 
Q 15.921875 -1.421875 10.953125 3.296875 
Q 6 8.015625 6 15.921875 
Q 6 25.140625 12.171875 29.828125 
Q 18.359375 34.515625 30.609375 34.515625 
L 43.21875 34.515625 
L 43.21875 35.40625 
Q 43.21875 41.609375 39.140625 45 
Q 35.0625 48.390625 27.6875 48.390625 
Q 23 48.390625 18.546875 47.265625 
Q 14.109375 46.140625 10.015625 43.890625 
L 10.015625 52.203125 
Q 14.9375 54.109375 19.578125 55.046875 
Q 24.21875 56 28.609375 56 
Q 40.484375 56 46.34375 49.84375 
Q 52.203125 43.703125 52.203125 31.203125 
z
" id="DejaVuSans-97"/>
      <path d="M 52 44.1875 
Q 55.375 50.25 60.0625 53.125 
Q 64.75 56 71.09375 56 
Q 79.640625 56 84.28125 50.015625 
Q 88.921875 44.046875 88.921875 33.015625 
L 88.921875 0 
L 79.890625 0 
L 79.890625 32.71875 
Q 79.890625 40.578125 77.09375 44.375 
Q 74.3125 48.1875 68.609375 48.1875 
Q 61.625 48.1875 57.5625 43.546875 
Q 53.515625 38.921875 53.515625 30.90625 
L 53.515625 0 
L 44.484375 0 
L 44.484375 32.71875 
Q 44.484375 40.625 41.703125 44.40625 
Q 38.921875 48.1875 33.109375 48.1875 
Q 26.21875 48.1875 22.15625 43.53125 
Q 18.109375 38.875 18.109375 30.90625 
L 18.109375 0 
L 9.078125 0 
L 9.078125 54.6875 
L 18.109375 54.6875 
L 18.109375 46.1875 
Q 21.1875 51.21875 25.484375 53.609375 
Q 29.78125 56 35.6875 56 
Q 41.65625 56 45.828125 52.96875 
Q 50 49.953125 52 44.1875 
z
" id="DejaVuSans-109"/>
      <path d="M 31 75.875 
Q 24.46875 64.65625 21.28125 53.65625 
Q 18.109375 42.671875 18.109375 31.390625 
Q 18.109375 20.125 21.3125 9.0625 
Q 24.515625 -2 31 -13.1875 
L 23.1875 -13.1875 
Q 15.875 -1.703125 12.234375 9.375 
Q 8.59375 20.453125 8.59375 31.390625 
Q 8.59375 42.28125 12.203125 53.3125 
Q 15.828125 64.359375 23.1875 75.875 
z
" id="DejaVuSans-40"/>
      <path d="M 9.421875 75.984375 
L 18.40625 75.984375 
L 18.40625 0 
L 9.421875 0 
z
" id="DejaVuSans-108"/>
      <path d="M 8.015625 75.875 
L 15.828125 75.875 
Q 23.140625 64.359375 26.78125 53.3125 
Q 30.421875 42.28125 30.421875 31.390625 
Q 30.421875 20.453125 26.78125 9.375 
Q 23.140625 -1.703125 15.828125 -13.1875 
L 8.015625 -13.1875 
Q 14.5 -2 17.703125 9.0625 
Q 20.90625 20.125 20.90625 31.390625 
Q 20.90625 42.671875 17.703125 53.65625 
Q 14.5 64.65625 8.015625 75.875 
z
" id="DejaVuSans-41"/>
     </defs>
     <g transform="translate(272.411544 183.636684)scale(0.1 -0.1)">
      <use xlink:href="#DejaVuSans-67"/>
      <use x="69.824219" xlink:href="#DejaVuSans-45"/>
      <use x="105.908203" xlink:href="#DejaVuSans-115"/>
      <use x="158.007812" xlink:href="#DejaVuSans-99"/>
      <use x="212.988281" xlink:href="#DejaVuSans-111"/>
      <use x="274.169922" xlink:href="#DejaVuSans-114"/>
      <use x="315.251953" xlink:href="#DejaVuSans-101"/>
      <use x="376.775391" xlink:href="#DejaVuSans-32"/>
      <use x="408.5625" xlink:href="#DejaVuSans-72"/>
      <use x="483.757812" xlink:href="#DejaVuSans-105"/>
      <use x="511.541016" xlink:href="#DejaVuSans-115"/>
      <use x="563.640625" xlink:href="#DejaVuSans-116"/>
      <use x="602.849609" xlink:href="#DejaVuSans-111"/>
      <use x="664.03125" xlink:href="#DejaVuSans-103"/>
      <use x="727.507812" xlink:href="#DejaVuSans-114"/>
      <use x="768.621094" xlink:href="#DejaVuSans-97"/>
      <use x="829.900391" xlink:href="#DejaVuSans-109"/>
      <use x="927.3125" xlink:href="#DejaVuSans-32"/>
      <use x="959.099609" xlink:href="#DejaVuSans-40"/>
      <use x="998.113281" xlink:href="#DejaVuSans-108"/>
      <use x="1025.896484" xlink:href="#DejaVuSans-111"/>
      <use x="1087.078125" xlink:href="#DejaVuSans-103"/>
      <use x="1150.554688" xlink:href="#DejaVuSans-32"/>
      <use x="1182.341797" xlink:href="#DejaVuSans-115"/>
      <use x="1234.441406" xlink:href="#DejaVuSans-99"/>
      <use x="1289.421875" xlink:href="#DejaVuSans-97"/>
      <use x="1350.701172" xlink:href="#DejaVuSans-108"/>
      <use x="1378.484375" xlink:href="#DejaVuSans-101"/>
      <use x="1440.007812" xlink:href="#DejaVuSans-41"/>
     </g>
    </g>
   </g>
   <g id="matplotlib.axis_2">
    <g id="ytick_1">
     <g id="line2d_13">
      <path clip-path="url(#p869563582a)" d="M 31.8 145.129696 
L 660.926214 145.129696 
" style="fill:none;stroke:#b0b0b0;stroke-linecap:square;stroke-width:0.8;"/>
     </g>
     <g id="line2d_14">
      <defs>
       <path d="M 0 0 
L -3.5 0 
" id="m0fa4a35027" style="stroke:#000000;stroke-width:0.8;"/>
      </defs>
      <g>
       <use style="stroke:#000000;stroke-width:0.8;" x="31.8" xlink:href="#m0fa4a35027" y="145.129696"/>
      </g>
     </g>
     <g id="text_8">
      <!-- $\mathdefault{10^{1}}$ -->
      <g transform="translate(7.2 148.928914)scale(0.1 -0.1)">
       <use transform="translate(0 0.684375)" xlink:href="#DejaVuSans-49"/>
       <use transform="translate(63.623047 0.684375)" xlink:href="#DejaVuSans-48"/>
       <use transform="translate(128.203125 38.965625)scale(0.7)" xlink:href="#DejaVuSans-49"/>
      </g>
     </g>
    </g>
    <g id="ytick_2">
     <g id="line2d_15">
      <path clip-path="url(#p869563582a)" d="M 31.8 64.597071 
L 660.926214 64.597071 
" style="fill:none;stroke:#b0b0b0;stroke-linecap:square;stroke-width:0.8;"/>
     </g>
     <g id="line2d_16">
      <g>
       <use style="stroke:#000000;stroke-width:0.8;" x="31.8" xlink:href="#m0fa4a35027" y="64.597071"/>
      </g>
     </g>
     <g id="text_9">
      <!-- $\mathdefault{10^{2}}$ -->
      <g transform="translate(7.2 68.396289)scale(0.1 -0.1)">
       <use transform="translate(0 0.765625)" xlink:href="#DejaVuSans-49"/>
       <use transform="translate(63.623047 0.765625)" xlink:href="#DejaVuSans-48"/>
       <use transform="translate(128.203125 39.046875)scale(0.7)" xlink:href="#DejaVuSans-50"/>
      </g>
     </g>
    </g>
    <g id="ytick_3">
     <g id="line2d_17">
      <defs>
       <path d="M 0 0 
L -2 0 
" id="mf90de49997" style="stroke:#000000;stroke-width:0.6;"/>
      </defs>
      <g>
       <use style="stroke:#000000;stroke-width:0.6;" x="31.8" xlink:href="#mf90de49997" y="152.934113"/>
      </g>
     </g>
    </g>
    <g id="ytick_4">
     <g id="line2d_18">
      <g>
       <use style="stroke:#000000;stroke-width:0.6;" x="31.8" xlink:href="#mf90de49997" y="148.814666"/>
      </g>
     </g>
    </g>
    <g id="ytick_5">
     <g id="line2d_19">
      <g>
       <use style="stroke:#000000;stroke-width:0.6;" x="31.8" xlink:href="#mf90de49997" y="120.88696"/>
      </g>
     </g>
    </g>
    <g id="ytick_6">
     <g id="line2d_20">
      <g>
       <use style="stroke:#000000;stroke-width:0.6;" x="31.8" xlink:href="#mf90de49997" y="106.705869"/>
      </g>
     </g>
    </g>
    <g id="ytick_7">
     <g id="line2d_21">
      <g>
       <use style="stroke:#000000;stroke-width:0.6;" x="31.8" xlink:href="#mf90de49997" y="96.644224"/>
      </g>
     </g>
    </g>
    <g id="ytick_8">
     <g id="line2d_22">
      <g>
       <use style="stroke:#000000;stroke-width:0.6;" x="31.8" xlink:href="#mf90de49997" y="88.839806"/>
      </g>
     </g>
    </g>
    <g id="ytick_9">
     <g id="line2d_23">
      <g>
       <use style="stroke:#000000;stroke-width:0.6;" x="31.8" xlink:href="#mf90de49997" y="82.463133"/>
      </g>
     </g>
    </g>
    <g id="ytick_10">
     <g id="line2d_24">
      <g>
       <use style="stroke:#000000;stroke-width:0.6;" x="31.8" xlink:href="#mf90de49997" y="77.071732"/>
      </g>
     </g>
    </g>
    <g id="ytick_11">
     <g id="line2d_25">
      <g>
       <use style="stroke:#000000;stroke-width:0.6;" x="31.8" xlink:href="#mf90de49997" y="72.401488"/>
      </g>
     </g>
    </g>
    <g id="ytick_12">
     <g id="line2d_26">
      <g>
       <use style="stroke:#000000;stroke-width:0.6;" x="31.8" xlink:href="#mf90de49997" y="68.282041"/>
      </g>
     </g>
    </g>
    <g id="ytick_13">
     <g id="line2d_27">
      <g>
       <use style="stroke:#000000;stroke-width:0.6;" x="31.8" xlink:href="#mf90de49997" y="40.354335"/>
      </g>
     </g>
    </g>
    <g id="ytick_14">
     <g id="line2d_28">
      <g>
       <use style="stroke:#000000;stroke-width:0.6;" x="31.8" xlink:href="#mf90de49997" y="26.173243"/>
      </g>
     </g>
    </g>
    <g id="ytick_15">
     <g id="line2d_29">
      <g>
       <use style="stroke:#000000;stroke-width:0.6;" x="31.8" xlink:href="#mf90de49997" y="16.111599"/>
      </g>
     </g>
    </g>
   </g>
   <g id="patch_3">
    <path clip-path="url(#p869563582a)" d="M 32.979612 80758.28739 
L 46.348544 80758.28739 
L 46.348544 61.905368 
L 32.979612 61.905368 
z
" style="fill:#67001f;"/>
   </g>
   <g id="patch_4">
    <path clip-path="url(#p869563582a)" d="M 48.707767 80758.28739 
L 62.076699 80758.28739 
L 62.076699 109.118886 
L 48.707767 109.118886 
z
" style="fill:#790622;"/>
   </g>
   <g id="patch_5">
    <path clip-path="url(#p869563582a)" d="M 64.435922 80758.28739 
L 77.804854 80758.28739 
L 77.804854 114.510286 
L 64.435922 114.510286 
z
" style="fill:#8d0c25;"/>
   </g>
   <g id="patch_6">
    <path clip-path="url(#p869563582a)" d="M 80.164078 80758.28739 
L 93.53301 80758.28739 
L 93.53301 130.948604 
L 80.164078 130.948604 
z
" style="fill:#9f1228;"/>
   </g>
   <g id="patch_7">
    <path clip-path="url(#p869563582a)" d="M 95.892233 80758.28739 
L 109.261165 80758.28739 
L 109.261165 126.571039 
L 95.892233 126.571039 
z
" style="fill:#b3192c;"/>
   </g>
   <g id="patch_8">
    <path clip-path="url(#p869563582a)" d="M 111.620388 80758.28739 
L 124.98932 80758.28739 
L 124.98932 128.691378 
L 111.620388 128.691378 
z
" style="fill:#bb2a34;"/>
   </g>
   <g id="patch_9">
    <path clip-path="url(#p869563582a)" d="M 127.348544 80758.28739 
L 140.717476 80758.28739 
L 140.717476 124.571931 
L 127.348544 124.571931 
z
" style="fill:#c53e3d;"/>
   </g>
   <g id="patch_10">
    <path clip-path="url(#p869563582a)" d="M 143.076699 80758.28739 
L 156.445631 80758.28739 
L 156.445631 124.571931 
L 143.076699 124.571931 
z
" style="fill:#ce4f45;"/>
   </g>
   <g id="patch_11">
    <path clip-path="url(#p869563582a)" d="M 158.804854 80758.28739 
L 172.173786 80758.28739 
L 172.173786 130.948604 
L 158.804854 130.948604 
z
" style="fill:#d7634f;"/>
   </g>
   <g id="patch_12">
    <path clip-path="url(#p869563582a)" d="M 174.53301 80758.28739 
L 187.901942 80758.28739 
L 187.901942 122.680936 
L 174.53301 122.680936 
z
" style="fill:#df765e;"/>
   </g>
   <g id="patch_13">
    <path clip-path="url(#p869563582a)" d="M 190.261165 80758.28739 
L 203.630097 80758.28739 
L 203.630097 133.361621 
L 190.261165 133.361621 
z
" style="fill:#e6866a;"/>
   </g>
   <g id="patch_14">
    <path clip-path="url(#p869563582a)" d="M 205.98932 80758.28739 
L 219.358252 80758.28739 
L 219.358252 145.129696 
L 205.98932 145.129696 
z
" style="fill:#ef9979;"/>
   </g>
   <g id="patch_15">
    <path clip-path="url(#p869563582a)" d="M 221.717476 80758.28739 
L 235.086408 80758.28739 
L 235.086408 141.796234 
L 221.717476 141.796234 
z
" style="fill:#f5a886;"/>
   </g>
   <g id="patch_16">
    <path clip-path="url(#p869563582a)" d="M 237.445631 80758.28739 
L 250.814563 80758.28739 
L 250.814563 138.753022 
L 237.445631 138.753022 
z
" style="fill:#f7b799;"/>
   </g>
   <g id="patch_17">
    <path clip-path="url(#p869563582a)" d="M 253.173786 80758.28739 
L 266.542718 80758.28739 
L 266.542718 126.571039 
L 253.173786 126.571039 
z
" style="fill:#f9c4a9;"/>
   </g>
   <g id="patch_18">
    <path clip-path="url(#p869563582a)" d="M 268.901942 80758.28739 
L 282.270874 80758.28739 
L 282.270874 133.361621 
L 268.901942 133.361621 
z
" style="fill:#fcd3bc;"/>
   </g>
   <g id="patch_19">
    <path clip-path="url(#p869563582a)" d="M 284.630097 80758.28739 
L 297.999029 80758.28739 
L 297.999029 122.680936 
L 284.630097 122.680936 
z
" style="fill:#fcdecd;"/>
   </g>
   <g id="patch_20">
    <path clip-path="url(#p869563582a)" d="M 300.358252 80758.28739 
L 313.727184 80758.28739 
L 313.727184 126.571039 
L 300.358252 126.571039 
z
" style="fill:#fbe5d8;"/>
   </g>
   <g id="patch_21">
    <path clip-path="url(#p869563582a)" d="M 316.086408 80758.28739 
L 329.45534 80758.28739 
L 329.45534 148.814666 
L 316.086408 148.814666 
z
" style="fill:#f9ede5;"/>
   </g>
   <g id="patch_22">
    <path clip-path="url(#p869563582a)" d="M 331.814563 80758.28739 
L 345.183495 80758.28739 
L 345.183495 130.948604 
L 331.814563 130.948604 
z
" style="fill:#f8f3f0;"/>
   </g>
   <g id="patch_23">
    <path clip-path="url(#p869563582a)" d="M 347.542718 80758.28739 
L 360.91165 80758.28739 
L 360.91165 133.361621 
L 347.542718 133.361621 
z
" style="fill:#f2f5f6;"/>
   </g>
   <g id="patch_24">
    <path clip-path="url(#p869563582a)" d="M 363.270874 80758.28739 
L 376.639806 80758.28739 
L 376.639806 145.129696 
L 363.270874 145.129696 
z
" style="fill:#e9f0f4;"/>
   </g>
   <g id="patch_25">
    <path clip-path="url(#p869563582a)" d="M 378.999029 80758.28739 
L 392.367961 80758.28739 
L 392.367961 117.553498 
L 378.999029 117.553498 
z
" style="fill:#deebf2;"/>
   </g>
   <g id="patch_26">
    <path clip-path="url(#p869563582a)" d="M 394.727184 80758.28739 
L 408.096117 80758.28739 
L 408.096117 115.998803 
L 394.727184 115.998803 
z
" style="fill:#d5e7f1;"/>
   </g>
   <g id="patch_27">
    <path clip-path="url(#p869563582a)" d="M 410.45534 80758.28739 
L 423.824272 80758.28739 
L 423.824272 128.691378 
L 410.45534 128.691378 
z
" style="fill:#c7e0ed;"/>
   </g>
   <g id="patch_28">
    <path clip-path="url(#p869563582a)" d="M 426.183495 80758.28739 
L 439.552427 80758.28739 
L 439.552427 122.680936 
L 426.183495 122.680936 
z
" style="fill:#b6d7e8;"/>
   </g>
   <g id="patch_29">
    <path clip-path="url(#p869563582a)" d="M 441.91165 80758.28739 
L 455.280583 80758.28739 
L 455.280583 145.129696 
L 441.91165 145.129696 
z
" style="fill:#a7d0e4;"/>
   </g>
   <g id="patch_30">
    <path clip-path="url(#p869563582a)" d="M 457.639806 80758.28739 
L 471.008738 80758.28739 
L 471.008738 114.510286 
L 457.639806 114.510286 
z
" style="fill:#96c7df;"/>
   </g>
   <g id="patch_31">
    <path clip-path="url(#p869563582a)" d="M 473.367961 80758.28739 
L 486.736893 80758.28739 
L 486.736893 124.571931 
L 473.367961 124.571931 
z
" style="fill:#84bcd9;"/>
   </g>
   <g id="patch_32">
    <path clip-path="url(#p869563582a)" d="M 489.096117 80758.28739 
L 502.465049 80758.28739 
L 502.465049 105.559049 
L 489.096117 105.559049 
z
" style="fill:#6eaed2;"/>
   </g>
   <g id="patch_33">
    <path clip-path="url(#p869563582a)" d="M 504.824272 80758.28739 
L 518.193204 80758.28739 
L 518.193204 130.948604 
L 504.824272 130.948604 
z
" style="fill:#5ca3cb;"/>
   </g>
   <g id="patch_34">
    <path clip-path="url(#p869563582a)" d="M 520.552427 80758.28739 
L 533.921359 80758.28739 
L 533.921359 111.710803 
L 520.552427 111.710803 
z
" style="fill:#4695c4;"/>
   </g>
   <g id="patch_35">
    <path clip-path="url(#p869563582a)" d="M 536.280583 80758.28739 
L 549.649515 80758.28739 
L 549.649515 124.571931 
L 536.280583 124.571931 
z
" style="fill:#3b88be;"/>
   </g>
   <g id="patch_36">
    <path clip-path="url(#p869563582a)" d="M 552.008738 80758.28739 
L 565.37767 80758.28739 
L 565.37767 117.553498 
L 552.008738 117.553498 
z
" style="fill:#337eb8;"/>
   </g>
   <g id="patch_37">
    <path clip-path="url(#p869563582a)" d="M 567.736893 80758.28739 
L 581.105825 80758.28739 
L 581.105825 100.329195 
L 567.736893 100.329195 
z
" style="fill:#2a71b2;"/>
   </g>
   <g id="patch_38">
    <path clip-path="url(#p869563582a)" d="M 583.465049 80758.28739 
L 596.833981 80758.28739 
L 596.833981 103.372407 
L 583.465049 103.372407 
z
" style="fill:#2267ac;"/>
   </g>
   <g id="patch_39">
    <path clip-path="url(#p869563582a)" d="M 599.193204 80758.28739 
L 612.562136 80758.28739 
L 612.562136 85.506345 
L 599.193204 85.506345 
z
" style="fill:#1a5899;"/>
   </g>
   <g id="patch_40">
    <path clip-path="url(#p869563582a)" d="M 614.921359 80758.28739 
L 628.290291 80758.28739 
L 628.290291 98.438201 
L 614.921359 98.438201 
z
" style="fill:#134c87;"/>
   </g>
   <g id="patch_41">
    <path clip-path="url(#p869563582a)" d="M 630.649515 80758.28739 
L 644.018447 80758.28739 
L 644.018447 75.128183 
L 630.649515 75.128183 
z
" style="fill:#0c3d73;"/>
   </g>
   <g id="patch_42">
    <path clip-path="url(#p869563582a)" d="M 646.37767 80758.28739 
L 659.746602 80758.28739 
L 659.746602 17.905576 
L 646.37767 17.905576 
z
" style="fill:#053061;"/>
   </g>
   <g id="patch_43">
    <path d="M 31.8 155.360121 
L 31.8 11.360121 
" style="fill:none;stroke:#000000;stroke-linecap:square;stroke-linejoin:miter;stroke-width:0.8;"/>
   </g>
   <g id="patch_44">
    <path d="M 660.926214 155.360121 
L 660.926214 11.360121 
" style="fill:none;stroke:#000000;stroke-linecap:square;stroke-linejoin:miter;stroke-width:0.8;"/>
   </g>
   <g id="patch_45">
    <path d="M 31.8 155.360121 
L 660.926214 155.360121 
" style="fill:none;stroke:#000000;stroke-linecap:square;stroke-linejoin:miter;stroke-width:0.8;"/>
   </g>
   <g id="patch_46">
    <path d="M 31.8 11.360121 
L 660.926214 11.360121 
" style="fill:none;stroke:#000000;stroke-linecap:square;stroke-linejoin:miter;stroke-width:0.8;"/>
   </g>
   <g id="legend_1">
    <g id="patch_47">
     <path d="M 38.8 34.038246 
L 145.817187 34.038246 
Q 147.817187 34.038246 147.817187 32.038246 
L 147.817187 18.360121 
Q 147.817187 16.360121 145.817187 16.360121 
L 38.8 16.360121 
Q 36.8 16.360121 36.8 18.360121 
L 36.8 32.038246 
Q 36.8 34.038246 38.8 34.038246 
z
" style="fill:#ffffff;opacity:0.8;stroke:#cccccc;stroke-linejoin:miter;"/>
    </g>
    <g id="patch_48">
     <path d="M 40.8 27.958559 
L 60.8 27.958559 
L 60.8 20.958559 
L 40.8 20.958559 
z
" style="fill:#67001f;"/>
    </g>
    <g id="text_10">
     <!-- Norwich terrier -->
     <defs>
      <path d="M 9.8125 72.90625 
L 23.09375 72.90625 
L 55.421875 11.921875 
L 55.421875 72.90625 
L 64.984375 72.90625 
L 64.984375 0 
L 51.703125 0 
L 19.390625 60.984375 
L 19.390625 0 
L 9.8125 0 
z
" id="DejaVuSans-78"/>
      <path d="M 4.203125 54.6875 
L 13.1875 54.6875 
L 24.421875 12.015625 
L 35.59375 54.6875 
L 46.1875 54.6875 
L 57.421875 12.015625 
L 68.609375 54.6875 
L 77.59375 54.6875 
L 63.28125 0 
L 52.6875 0 
L 40.921875 44.828125 
L 29.109375 0 
L 18.5 0 
z
" id="DejaVuSans-119"/>
      <path d="M 54.890625 33.015625 
L 54.890625 0 
L 45.90625 0 
L 45.90625 32.71875 
Q 45.90625 40.484375 42.875 44.328125 
Q 39.84375 48.1875 33.796875 48.1875 
Q 26.515625 48.1875 22.3125 43.546875 
Q 18.109375 38.921875 18.109375 30.90625 
L 18.109375 0 
L 9.078125 0 
L 9.078125 75.984375 
L 18.109375 75.984375 
L 18.109375 46.1875 
Q 21.34375 51.125 25.703125 53.5625 
Q 30.078125 56 35.796875 56 
Q 45.21875 56 50.046875 50.171875 
Q 54.890625 44.34375 54.890625 33.015625 
z
" id="DejaVuSans-104"/>
     </defs>
     <g transform="translate(68.8 27.958559)scale(0.1 -0.1)">
      <use xlink:href="#DejaVuSans-78"/>
      <use x="74.804688" xlink:href="#DejaVuSans-111"/>
      <use x="135.986328" xlink:href="#DejaVuSans-114"/>
      <use x="177.099609" xlink:href="#DejaVuSans-119"/>
      <use x="258.886719" xlink:href="#DejaVuSans-105"/>
      <use x="286.669922" xlink:href="#DejaVuSans-99"/>
      <use x="341.650391" xlink:href="#DejaVuSans-104"/>
      <use x="405.029297" xlink:href="#DejaVuSans-32"/>
      <use x="436.816406" xlink:href="#DejaVuSans-116"/>
      <use x="476.025391" xlink:href="#DejaVuSans-101"/>
      <use x="537.548828" xlink:href="#DejaVuSans-114"/>
      <use x="578.646484" xlink:href="#DejaVuSans-114"/>
      <use x="619.759766" xlink:href="#DejaVuSans-105"/>
      <use x="647.542969" xlink:href="#DejaVuSans-101"/>
      <use x="709.066406" xlink:href="#DejaVuSans-114"/>
     </g>
    </g>
   </g>
  </g>
  <g id="axes_2">
   <g id="patch_49">
    <path d="M 698.673786 155.360121 
L 1327.8 155.360121 
L 1327.8 11.360121 
L 698.673786 11.360121 
z
" style="fill:#ffffff;"/>
   </g>
   <g id="matplotlib.axis_3">
    <g id="xtick_7">
     <g id="line2d_30">
      <path clip-path="url(#pbad2ec9618)" d="M 698.673786 155.360121 
L 698.673786 11.360121 
" style="fill:none;stroke:#b0b0b0;stroke-linecap:square;stroke-width:0.8;"/>
     </g>
     <g id="line2d_31">
      <g>
       <use style="stroke:#000000;stroke-width:0.8;" x="698.673786" xlink:href="#m11b4c68372" y="155.360121"/>
      </g>
     </g>
     <g id="text_11">
      <!-- 0.0 -->
      <g transform="translate(690.722224 169.958559)scale(0.1 -0.1)">
       <use xlink:href="#DejaVuSans-48"/>
       <use x="63.623047" xlink:href="#DejaVuSans-46"/>
       <use x="95.410156" xlink:href="#DejaVuSans-48"/>
      </g>
     </g>
    </g>
    <g id="xtick_8">
     <g id="line2d_32">
      <path clip-path="url(#pbad2ec9618)" d="M 824.499029 155.360121 
L 824.499029 11.360121 
" style="fill:none;stroke:#b0b0b0;stroke-linecap:square;stroke-width:0.8;"/>
     </g>
     <g id="line2d_33">
      <g>
       <use style="stroke:#000000;stroke-width:0.8;" x="824.499029" xlink:href="#m11b4c68372" y="155.360121"/>
      </g>
     </g>
     <g id="text_12">
      <!-- 0.2 -->
      <g transform="translate(816.547467 169.958559)scale(0.1 -0.1)">
       <use xlink:href="#DejaVuSans-48"/>
       <use x="63.623047" xlink:href="#DejaVuSans-46"/>
       <use x="95.410156" xlink:href="#DejaVuSans-50"/>
      </g>
     </g>
    </g>
    <g id="xtick_9">
     <g id="line2d_34">
      <path clip-path="url(#pbad2ec9618)" d="M 950.324272 155.360121 
L 950.324272 11.360121 
" style="fill:none;stroke:#b0b0b0;stroke-linecap:square;stroke-width:0.8;"/>
     </g>
     <g id="line2d_35">
      <g>
       <use style="stroke:#000000;stroke-width:0.8;" x="950.324272" xlink:href="#m11b4c68372" y="155.360121"/>
      </g>
     </g>
     <g id="text_13">
      <!-- 0.4 -->
      <g transform="translate(942.372709 169.958559)scale(0.1 -0.1)">
       <use xlink:href="#DejaVuSans-48"/>
       <use x="63.623047" xlink:href="#DejaVuSans-46"/>
       <use x="95.410156" xlink:href="#DejaVuSans-52"/>
      </g>
     </g>
    </g>
    <g id="xtick_10">
     <g id="line2d_36">
      <path clip-path="url(#pbad2ec9618)" d="M 1076.149515 155.360121 
L 1076.149515 11.360121 
" style="fill:none;stroke:#b0b0b0;stroke-linecap:square;stroke-width:0.8;"/>
     </g>
     <g id="line2d_37">
      <g>
       <use style="stroke:#000000;stroke-width:0.8;" x="1076.149515" xlink:href="#m11b4c68372" y="155.360121"/>
      </g>
     </g>
     <g id="text_14">
      <!-- 0.6 -->
      <g transform="translate(1068.197952 169.958559)scale(0.1 -0.1)">
       <use xlink:href="#DejaVuSans-48"/>
       <use x="63.623047" xlink:href="#DejaVuSans-46"/>
       <use x="95.410156" xlink:href="#DejaVuSans-54"/>
      </g>
     </g>
    </g>
    <g id="xtick_11">
     <g id="line2d_38">
      <path clip-path="url(#pbad2ec9618)" d="M 1201.974757 155.360121 
L 1201.974757 11.360121 
" style="fill:none;stroke:#b0b0b0;stroke-linecap:square;stroke-width:0.8;"/>
     </g>
     <g id="line2d_39">
      <g>
       <use style="stroke:#000000;stroke-width:0.8;" x="1201.974757" xlink:href="#m11b4c68372" y="155.360121"/>
      </g>
     </g>
     <g id="text_15">
      <!-- 0.8 -->
      <g transform="translate(1194.023195 169.958559)scale(0.1 -0.1)">
       <use xlink:href="#DejaVuSans-48"/>
       <use x="63.623047" xlink:href="#DejaVuSans-46"/>
       <use x="95.410156" xlink:href="#DejaVuSans-56"/>
      </g>
     </g>
    </g>
    <g id="xtick_12">
     <g id="line2d_40">
      <path clip-path="url(#pbad2ec9618)" d="M 1327.8 155.360121 
L 1327.8 11.360121 
" style="fill:none;stroke:#b0b0b0;stroke-linecap:square;stroke-width:0.8;"/>
     </g>
     <g id="line2d_41">
      <g>
       <use style="stroke:#000000;stroke-width:0.8;" x="1327.8" xlink:href="#m11b4c68372" y="155.360121"/>
      </g>
     </g>
     <g id="text_16">
      <!-- 1.0 -->
      <g transform="translate(1319.848438 169.958559)scale(0.1 -0.1)">
       <use xlink:href="#DejaVuSans-49"/>
       <use x="63.623047" xlink:href="#DejaVuSans-46"/>
       <use x="95.410156" xlink:href="#DejaVuSans-48"/>
      </g>
     </g>
    </g>
    <g id="text_17">
     <!-- C-score Histogram -->
     <g transform="translate(966.871268 183.636684)scale(0.1 -0.1)">
      <use xlink:href="#DejaVuSans-67"/>
      <use x="69.824219" xlink:href="#DejaVuSans-45"/>
      <use x="105.908203" xlink:href="#DejaVuSans-115"/>
      <use x="158.007812" xlink:href="#DejaVuSans-99"/>
      <use x="212.988281" xlink:href="#DejaVuSans-111"/>
      <use x="274.169922" xlink:href="#DejaVuSans-114"/>
      <use x="315.251953" xlink:href="#DejaVuSans-101"/>
      <use x="376.775391" xlink:href="#DejaVuSans-32"/>
      <use x="408.5625" xlink:href="#DejaVuSans-72"/>
      <use x="483.757812" xlink:href="#DejaVuSans-105"/>
      <use x="511.541016" xlink:href="#DejaVuSans-115"/>
      <use x="563.640625" xlink:href="#DejaVuSans-116"/>
      <use x="602.849609" xlink:href="#DejaVuSans-111"/>
      <use x="664.03125" xlink:href="#DejaVuSans-103"/>
      <use x="727.507812" xlink:href="#DejaVuSans-114"/>
      <use x="768.621094" xlink:href="#DejaVuSans-97"/>
      <use x="829.900391" xlink:href="#DejaVuSans-109"/>
     </g>
    </g>
   </g>
   <g id="matplotlib.axis_4">
    <g id="ytick_16">
     <g id="line2d_42">
      <path clip-path="url(#pbad2ec9618)" d="M 698.673786 155.360121 
L 1327.8 155.360121 
" style="fill:none;stroke:#b0b0b0;stroke-linecap:square;stroke-width:0.8;"/>
     </g>
     <g id="line2d_43">
      <g>
       <use style="stroke:#000000;stroke-width:0.8;" x="698.673786" xlink:href="#m0fa4a35027" y="155.360121"/>
      </g>
     </g>
     <g id="text_18">
      <!-- 0 -->
      <g transform="translate(685.311286 159.15934)scale(0.1 -0.1)">
       <use xlink:href="#DejaVuSans-48"/>
      </g>
     </g>
    </g>
    <g id="ytick_17">
     <g id="line2d_44">
      <path clip-path="url(#pbad2ec9618)" d="M 698.673786 119.269895 
L 1327.8 119.269895 
" style="fill:none;stroke:#b0b0b0;stroke-linecap:square;stroke-width:0.8;"/>
     </g>
     <g id="line2d_45">
      <g>
       <use style="stroke:#000000;stroke-width:0.8;" x="698.673786" xlink:href="#m0fa4a35027" y="119.269895"/>
      </g>
     </g>
     <g id="text_19">
      <!-- 100 -->
      <g transform="translate(672.586286 123.069114)scale(0.1 -0.1)">
       <use xlink:href="#DejaVuSans-49"/>
       <use x="63.623047" xlink:href="#DejaVuSans-48"/>
       <use x="127.246094" xlink:href="#DejaVuSans-48"/>
      </g>
     </g>
    </g>
    <g id="ytick_18">
     <g id="line2d_46">
      <path clip-path="url(#pbad2ec9618)" d="M 698.673786 83.17967 
L 1327.8 83.17967 
" style="fill:none;stroke:#b0b0b0;stroke-linecap:square;stroke-width:0.8;"/>
     </g>
     <g id="line2d_47">
      <g>
       <use style="stroke:#000000;stroke-width:0.8;" x="698.673786" xlink:href="#m0fa4a35027" y="83.17967"/>
      </g>
     </g>
     <g id="text_20">
      <!-- 200 -->
      <g transform="translate(672.586286 86.978889)scale(0.1 -0.1)">
       <use xlink:href="#DejaVuSans-50"/>
       <use x="63.623047" xlink:href="#DejaVuSans-48"/>
       <use x="127.246094" xlink:href="#DejaVuSans-48"/>
      </g>
     </g>
    </g>
    <g id="ytick_19">
     <g id="line2d_48">
      <path clip-path="url(#pbad2ec9618)" d="M 698.673786 47.089444 
L 1327.8 47.089444 
" style="fill:none;stroke:#b0b0b0;stroke-linecap:square;stroke-width:0.8;"/>
     </g>
     <g id="line2d_49">
      <g>
       <use style="stroke:#000000;stroke-width:0.8;" x="698.673786" xlink:href="#m0fa4a35027" y="47.089444"/>
      </g>
     </g>
     <g id="text_21">
      <!-- 300 -->
      <defs>
       <path d="M 40.578125 39.3125 
Q 47.65625 37.796875 51.625 33 
Q 55.609375 28.21875 55.609375 21.1875 
Q 55.609375 10.40625 48.1875 4.484375 
Q 40.765625 -1.421875 27.09375 -1.421875 
Q 22.515625 -1.421875 17.65625 -0.515625 
Q 12.796875 0.390625 7.625 2.203125 
L 7.625 11.71875 
Q 11.71875 9.328125 16.59375 8.109375 
Q 21.484375 6.890625 26.8125 6.890625 
Q 36.078125 6.890625 40.9375 10.546875 
Q 45.796875 14.203125 45.796875 21.1875 
Q 45.796875 27.640625 41.28125 31.265625 
Q 36.765625 34.90625 28.71875 34.90625 
L 20.21875 34.90625 
L 20.21875 43.015625 
L 29.109375 43.015625 
Q 36.375 43.015625 40.234375 45.921875 
Q 44.09375 48.828125 44.09375 54.296875 
Q 44.09375 59.90625 40.109375 62.90625 
Q 36.140625 65.921875 28.71875 65.921875 
Q 24.65625 65.921875 20.015625 65.03125 
Q 15.375 64.15625 9.8125 62.3125 
L 9.8125 71.09375 
Q 15.4375 72.65625 20.34375 73.4375 
Q 25.25 74.21875 29.59375 74.21875 
Q 40.828125 74.21875 47.359375 69.109375 
Q 53.90625 64.015625 53.90625 55.328125 
Q 53.90625 49.265625 50.4375 45.09375 
Q 46.96875 40.921875 40.578125 39.3125 
z
" id="DejaVuSans-51"/>
      </defs>
      <g transform="translate(672.586286 50.888663)scale(0.1 -0.1)">
       <use xlink:href="#DejaVuSans-51"/>
       <use x="63.623047" xlink:href="#DejaVuSans-48"/>
       <use x="127.246094" xlink:href="#DejaVuSans-48"/>
      </g>
     </g>
    </g>
    <g id="ytick_20">
     <g id="line2d_50">
      <path clip-path="url(#pbad2ec9618)" d="M 698.673786 10.999219 
L 1327.8 10.999219 
" style="fill:none;stroke:#b0b0b0;stroke-linecap:square;stroke-width:0.8;"/>
     </g>
     <g id="line2d_51">
      <g>
       <use style="stroke:#000000;stroke-width:0.8;" x="698.673786" xlink:href="#m0fa4a35027" y="10.999219"/>
      </g>
     </g>
     <g id="text_22">
      <!-- 400 -->
      <g transform="translate(672.586286 14.798437)scale(0.1 -0.1)">
       <use xlink:href="#DejaVuSans-52"/>
       <use x="63.623047" xlink:href="#DejaVuSans-48"/>
       <use x="127.246094" xlink:href="#DejaVuSans-48"/>
      </g>
     </g>
    </g>
   </g>
   <g id="patch_50">
    <path clip-path="url(#pbad2ec9618)" d="M 699.853398 155.360121 
L 713.22233 155.360121 
L 713.22233 116.382677 
L 699.853398 116.382677 
z
" style="fill:#67001f;"/>
   </g>
   <g id="patch_51">
    <path clip-path="url(#pbad2ec9618)" d="M 715.581553 155.360121 
L 728.950485 155.360121 
L 728.950485 145.254858 
L 715.581553 145.254858 
z
" style="fill:#790622;"/>
   </g>
   <g id="patch_52">
    <path clip-path="url(#pbad2ec9618)" d="M 731.309709 155.360121 
L 744.678641 155.360121 
L 744.678641 146.698467 
L 731.309709 146.698467 
z
" style="fill:#8d0c25;"/>
   </g>
   <g id="patch_53">
    <path clip-path="url(#pbad2ec9618)" d="M 747.037864 155.360121 
L 760.406796 155.360121 
L 760.406796 149.946587 
L 747.037864 149.946587 
z
" style="fill:#9f1228;"/>
   </g>
   <g id="patch_54">
    <path clip-path="url(#pbad2ec9618)" d="M 762.766019 155.360121 
L 776.134951 155.360121 
L 776.134951 149.224783 
L 762.766019 149.224783 
z
" style="fill:#b3192c;"/>
   </g>
   <g id="patch_55">
    <path clip-path="url(#pbad2ec9618)" d="M 778.494175 155.360121 
L 791.863107 155.360121 
L 791.863107 149.585685 
L 778.494175 149.585685 
z
" style="fill:#bb2a34;"/>
   </g>
   <g id="patch_56">
    <path clip-path="url(#pbad2ec9618)" d="M 794.22233 155.360121 
L 807.591262 155.360121 
L 807.591262 148.86388 
L 794.22233 148.86388 
z
" style="fill:#c53e3d;"/>
   </g>
   <g id="patch_57">
    <path clip-path="url(#pbad2ec9618)" d="M 809.950485 155.360121 
L 823.319417 155.360121 
L 823.319417 148.86388 
L 809.950485 148.86388 
z
" style="fill:#ce4f45;"/>
   </g>
   <g id="patch_58">
    <path clip-path="url(#pbad2ec9618)" d="M 825.678641 155.360121 
L 839.047573 155.360121 
L 839.047573 149.946587 
L 825.678641 149.946587 
z
" style="fill:#d7634f;"/>
   </g>
   <g id="patch_59">
    <path clip-path="url(#pbad2ec9618)" d="M 841.406796 155.360121 
L 854.775728 155.360121 
L 854.775728 148.502978 
L 841.406796 148.502978 
z
" style="fill:#df765e;"/>
   </g>
   <g id="patch_60">
    <path clip-path="url(#pbad2ec9618)" d="M 857.134951 155.360121 
L 870.503883 155.360121 
L 870.503883 150.307489 
L 857.134951 150.307489 
z
" style="fill:#e6866a;"/>
   </g>
   <g id="patch_61">
    <path clip-path="url(#pbad2ec9618)" d="M 872.863107 155.360121 
L 886.232039 155.360121 
L 886.232039 151.751098 
L 872.863107 151.751098 
z
" style="fill:#ef9979;"/>
   </g>
   <g id="patch_62">
    <path clip-path="url(#pbad2ec9618)" d="M 888.591262 155.360121 
L 901.960194 155.360121 
L 901.960194 151.390196 
L 888.591262 151.390196 
z
" style="fill:#f5a886;"/>
   </g>
   <g id="patch_63">
    <path clip-path="url(#pbad2ec9618)" d="M 904.319417 155.360121 
L 917.68835 155.360121 
L 917.68835 151.029294 
L 904.319417 151.029294 
z
" style="fill:#f7b799;"/>
   </g>
   <g id="patch_64">
    <path clip-path="url(#pbad2ec9618)" d="M 920.047573 155.360121 
L 933.416505 155.360121 
L 933.416505 149.224783 
L 920.047573 149.224783 
z
" style="fill:#f9c4a9;"/>
   </g>
   <g id="patch_65">
    <path clip-path="url(#pbad2ec9618)" d="M 935.775728 155.360121 
L 949.14466 155.360121 
L 949.14466 150.307489 
L 935.775728 150.307489 
z
" style="fill:#fcd3bc;"/>
   </g>
   <g id="patch_66">
    <path clip-path="url(#pbad2ec9618)" d="M 951.503883 155.360121 
L 964.872816 155.360121 
L 964.872816 148.502978 
L 951.503883 148.502978 
z
" style="fill:#fcdecd;"/>
   </g>
   <g id="patch_67">
    <path clip-path="url(#pbad2ec9618)" d="M 967.232039 155.360121 
L 980.600971 155.360121 
L 980.600971 149.224783 
L 967.232039 149.224783 
z
" style="fill:#fbe5d8;"/>
   </g>
   <g id="patch_68">
    <path clip-path="url(#pbad2ec9618)" d="M 982.960194 155.360121 
L 996.329126 155.360121 
L 996.329126 152.112001 
L 982.960194 152.112001 
z
" style="fill:#f9ede5;"/>
   </g>
   <g id="patch_69">
    <path clip-path="url(#pbad2ec9618)" d="M 998.68835 155.360121 
L 1012.057282 155.360121 
L 1012.057282 149.946587 
L 998.68835 149.946587 
z
" style="fill:#f8f3f0;"/>
   </g>
   <g id="patch_70">
    <path clip-path="url(#pbad2ec9618)" d="M 1014.416505 155.360121 
L 1027.785437 155.360121 
L 1027.785437 150.307489 
L 1014.416505 150.307489 
z
" style="fill:#f2f5f6;"/>
   </g>
   <g id="patch_71">
    <path clip-path="url(#pbad2ec9618)" d="M 1030.14466 155.360121 
L 1043.513592 155.360121 
L 1043.513592 151.751098 
L 1030.14466 151.751098 
z
" style="fill:#e9f0f4;"/>
   </g>
   <g id="patch_72">
    <path clip-path="url(#pbad2ec9618)" d="M 1045.872816 155.360121 
L 1059.241748 155.360121 
L 1059.241748 147.420271 
L 1045.872816 147.420271 
z
" style="fill:#deebf2;"/>
   </g>
   <g id="patch_73">
    <path clip-path="url(#pbad2ec9618)" d="M 1061.600971 155.360121 
L 1074.969903 155.360121 
L 1074.969903 147.059369 
L 1061.600971 147.059369 
z
" style="fill:#d5e7f1;"/>
   </g>
   <g id="patch_74">
    <path clip-path="url(#pbad2ec9618)" d="M 1077.329126 155.360121 
L 1090.698058 155.360121 
L 1090.698058 149.585685 
L 1077.329126 149.585685 
z
" style="fill:#c7e0ed;"/>
   </g>
   <g id="patch_75">
    <path clip-path="url(#pbad2ec9618)" d="M 1093.057282 155.360121 
L 1106.426214 155.360121 
L 1106.426214 148.502978 
L 1093.057282 148.502978 
z
" style="fill:#b6d7e8;"/>
   </g>
   <g id="patch_76">
    <path clip-path="url(#pbad2ec9618)" d="M 1108.785437 155.360121 
L 1122.154369 155.360121 
L 1122.154369 151.751098 
L 1108.785437 151.751098 
z
" style="fill:#a7d0e4;"/>
   </g>
   <g id="patch_77">
    <path clip-path="url(#pbad2ec9618)" d="M 1124.513592 155.360121 
L 1137.882524 155.360121 
L 1137.882524 146.698467 
L 1124.513592 146.698467 
z
" style="fill:#96c7df;"/>
   </g>
   <g id="patch_78">
    <path clip-path="url(#pbad2ec9618)" d="M 1140.241748 155.360121 
L 1153.61068 155.360121 
L 1153.61068 148.86388 
L 1140.241748 148.86388 
z
" style="fill:#84bcd9;"/>
   </g>
   <g id="patch_79">
    <path clip-path="url(#pbad2ec9618)" d="M 1155.969903 155.360121 
L 1169.338835 155.360121 
L 1169.338835 144.172151 
L 1155.969903 144.172151 
z
" style="fill:#6eaed2;"/>
   </g>
   <g id="patch_80">
    <path clip-path="url(#pbad2ec9618)" d="M 1171.698058 155.360121 
L 1185.06699 155.360121 
L 1185.06699 149.946587 
L 1171.698058 149.946587 
z
" style="fill:#5ca3cb;"/>
   </g>
   <g id="patch_81">
    <path clip-path="url(#pbad2ec9618)" d="M 1187.426214 155.360121 
L 1200.795146 155.360121 
L 1200.795146 145.976662 
L 1187.426214 145.976662 
z
" style="fill:#4695c4;"/>
   </g>
   <g id="patch_82">
    <path clip-path="url(#pbad2ec9618)" d="M 1203.154369 155.360121 
L 1216.523301 155.360121 
L 1216.523301 148.86388 
L 1203.154369 148.86388 
z
" style="fill:#3b88be;"/>
   </g>
   <g id="patch_83">
    <path clip-path="url(#pbad2ec9618)" d="M 1218.882524 155.360121 
L 1232.251456 155.360121 
L 1232.251456 147.420271 
L 1218.882524 147.420271 
z
" style="fill:#337eb8;"/>
   </g>
   <g id="patch_84">
    <path clip-path="url(#pbad2ec9618)" d="M 1234.61068 155.360121 
L 1247.979612 155.360121 
L 1247.979612 142.36764 
L 1234.61068 142.36764 
z
" style="fill:#2a71b2;"/>
   </g>
   <g id="patch_85">
    <path clip-path="url(#pbad2ec9618)" d="M 1250.338835 155.360121 
L 1263.707767 155.360121 
L 1263.707767 143.450347 
L 1250.338835 143.450347 
z
" style="fill:#2267ac;"/>
   </g>
   <g id="patch_86">
    <path clip-path="url(#pbad2ec9618)" d="M 1266.06699 155.360121 
L 1279.435922 155.360121 
L 1279.435922 135.510497 
L 1266.06699 135.510497 
z
" style="fill:#1a5899;"/>
   </g>
   <g id="patch_87">
    <path clip-path="url(#pbad2ec9618)" d="M 1281.795146 155.360121 
L 1295.164078 155.360121 
L 1295.164078 141.645835 
L 1281.795146 141.645835 
z
" style="fill:#134c87;"/>
   </g>
   <g id="patch_88">
    <path clip-path="url(#pbad2ec9618)" d="M 1297.523301 155.360121 
L 1310.892233 155.360121 
L 1310.892233 128.653354 
L 1297.523301 128.653354 
z
" style="fill:#0c3d73;"/>
   </g>
   <g id="patch_89">
    <path clip-path="url(#pbad2ec9618)" d="M 1313.251456 155.360121 
L 1326.620388 155.360121 
L 1326.620388 18.217264 
L 1313.251456 18.217264 
z
" style="fill:#053061;"/>
   </g>
   <g id="patch_90">
    <path d="M 698.673786 155.360121 
L 698.673786 11.360121 
" style="fill:none;stroke:#000000;stroke-linecap:square;stroke-linejoin:miter;stroke-width:0.8;"/>
   </g>
   <g id="patch_91">
    <path d="M 1327.8 155.360121 
L 1327.8 11.360121 
" style="fill:none;stroke:#000000;stroke-linecap:square;stroke-linejoin:miter;stroke-width:0.8;"/>
   </g>
   <g id="patch_92">
    <path d="M 698.673786 155.360121 
L 1327.8 155.360121 
" style="fill:none;stroke:#000000;stroke-linecap:square;stroke-linejoin:miter;stroke-width:0.8;"/>
   </g>
   <g id="patch_93">
    <path d="M 698.673786 11.360121 
L 1327.8 11.360121 
" style="fill:none;stroke:#000000;stroke-linecap:square;stroke-linejoin:miter;stroke-width:0.8;"/>
   </g>
  </g>
 </g>
 <defs>
  <clipPath id="p869563582a">
   <rect height="144" width="629.126214" x="31.8" y="11.360121"/>
  </clipPath>
  <clipPath id="pbad2ec9618">
   <rect height="144" width="629.126214" x="698.673786" y="11.360121"/>
  </clipPath>
 </defs>
</svg>
